<?xml version="1.0" encoding="utf-8"?>
<!-- Generator: Adobe Illustrator 24.0.1, SVG Export Plug-In . SVG Version: 6.00 Build 0)  -->
<svg version="1.1" xmlns="http://www.w3.org/2000/svg" xmlns:xlink="http://www.w3.org/1999/xlink" x="0px" y="0px"
	 viewBox="0 0 2200 1466" style="enable-background:new 0 0 2200 1466;" xml:space="preserve">
<style type="text/css">
	.st0{fill:#F9F0DF;}
	.st1{fill:#223663;}
	.st2{fill:#FFB144;}
	.st3{opacity:0.47;clip-path:url(#SVGID_1_);}
	.st4{fill:#FFFFFF;}
	.st5{opacity:0.52;clip-path:url(#SVGID_1_);}
	.st6{fill:#EC9737;}
	.st7{opacity:0.23;}
	.st8{fill:#FFCF00;}
	.st9{fill:#00B3A2;}
	.st10{fill:#FFCFAB;}
	.st11{fill:#009686;}
	.st12{fill:#9BCBF3;}
	.st13{fill:#008F80;}
	.st14{opacity:0.52;clip-path:url(#SVGID_2_);}
	.st15{opacity:0.47;clip-path:url(#SVGID_2_);}
	.st16{fill:#E9E9E9;}
	.st17{clip-path:url(#SVGID_3_);}
	.st18{fill:#8DBCEC;}
	.st19{fill:#6CDDCF;}
	.st20{opacity:0.47;clip-path:url(#SVGID_4_);}
	.st21{opacity:0.52;clip-path:url(#SVGID_4_);}
	.st22{fill:#FFD191;}
	.st23{opacity:0.47;}
	.st24{clip-path:url(#SVGID_5_);}
</style>
<g id="background">
	<rect class="st0" width="2200" height="1466"/>
	<path d="M102.3,0h12.2c-12.8,18.1-26.7,35.8-53.6,35.8C34,35.8,20,18.1,7.3,0h12.2c10.5,14.2,22,25.9,41.4,25.9
		C80.3,25.9,91.8,14.2,102.3,0z"/>
	<path d="M310.1,0h12.2c-12.8,18.1-26.7,35.8-53.6,35.8c-26.9,0-40.8-17.6-53.6-35.8h12.2c10.5,14.2,22,25.9,41.4,25.9
		C288.1,25.9,299.6,14.2,310.1,0z"/>
	<path d="M518,0h12.2c-12.8,18.1-26.7,35.8-53.6,35.8c-26.9,0-40.8-17.6-53.6-35.8h12.2c10.5,14.2,22,25.9,41.5,25.9
		C495.9,25.9,507.4,14.2,518,0z"/>
	<path d="M725.8,0H738c-12.8,18.1-26.7,35.8-53.6,35.8S643.5,18.1,630.7,0h12.2c10.5,14.2,22,25.9,41.5,25.9
		C703.7,25.9,715.2,14.2,725.8,0z"/>
	<path d="M933.6,0h12.2C933,18.1,919,35.8,892.2,35.8c-26.9,0-40.8-17.6-53.6-35.8h12.2c10.5,14.2,22,25.9,41.5,25.9
		C911.6,25.9,923.1,14.2,933.6,0z"/>
	<path d="M1141.4,0h12.2c-12.8,18.1-26.7,35.8-53.6,35.8c-26.9,0-40.8-17.6-53.6-35.8h12.2c10.5,14.2,22,25.9,41.4,25.9
		C1119.4,25.9,1130.9,14.2,1141.4,0z"/>
	<path d="M1349.3,0h12.2c-12.8,18.1-26.8,35.8-53.6,35.8c-26.9,0-40.8-17.6-53.6-35.8h12.2c10.5,14.2,22,25.9,41.5,25.9
		C1327.2,25.9,1338.7,14.2,1349.3,0z"/>
	<path d="M1557.1,0h12.2c-12.8,18.1-26.7,35.8-53.6,35.8c-26.9,0-40.8-17.6-53.6-35.8h12.2c10.6,14.2,22,25.9,41.5,25.9
		S1546.5,14.2,1557.1,0z"/>
	<path d="M1764.9,0h12.2c-12.8,18.1-26.7,35.8-53.6,35.8c-26.9,0-40.8-17.6-53.6-35.8h12.2c10.5,14.2,22,25.9,41.4,25.9
		C1742.9,25.9,1754.4,14.2,1764.9,0z"/>
	<path d="M1972.7,0h12.2c-12.8,18.1-26.7,35.8-53.6,35.8c-26.9,0-40.8-17.6-53.6-35.8h12.2c10.5,14.2,22,25.9,41.4,25.9
		C1950.7,25.9,1962.2,14.2,1972.7,0z"/>
	<path d="M2192.8,0c-12.8,18.1-26.8,35.8-53.6,35.8c-26.9,0-40.8-17.6-53.6-35.8h12.2c10.5,14.2,22,25.9,41.4,25.9
		c19.4,0,30.9-11.7,41.5-25.9H2192.8z"/>
	<path d="M2200,72.2v16.1c-1.6,2.3-3.2,4.5-4.9,6.9c-13.5,19.2-27.5,39.1-56,39.1c-28.5,0-42.5-19.9-56-39.1
		c-12.6-18-24.5-34.9-47.9-34.9c-23.4,0-35.3,17-47.9,34.9c-13.5,19.2-27.4,39.1-56,39.1s-42.5-19.9-56-39.1
		c-12.6-18-24.5-34.9-47.9-34.9c-23.4,0-35.3,17-47.9,34.9c-13.5,19.2-27.4,39.1-56,39.1c-28.5,0-42.5-19.9-56-39.1
		c-12.6-18-24.5-34.9-47.9-34.9c-23.4,0-35.3,17-47.9,34.9c-13.5,19.2-27.5,39.1-56,39.1c-28.5,0-42.5-19.9-56-39.1
		c-12.6-18-24.5-34.9-47.9-34.9c-23.4,0-35.3,17-47.9,34.9c-13.5,19.2-27.5,39.1-56,39.1c-28.6,0-42.5-19.9-56-39.1
		c-12.6-18-24.5-34.9-47.9-34.9s-35.3,17-47.9,34.9c-13.5,19.2-27.4,39.1-56,39.1c-28.5,0-42.5-19.9-56-39.1
		c-12.6-18-24.5-34.9-47.9-34.9c-23.4,0-35.3,17-47.9,34.9c-13.5,19.2-27.5,39.1-56,39.1c-28.5,0-42.5-19.9-56-39.1
		c-12.6-18-24.5-34.9-47.9-34.9c-23.4,0-35.3,17-47.9,34.9c-13.5,19.2-27.5,39.1-56,39.1s-42.5-19.9-56-39.1
		c-12.6-18-24.5-34.9-47.9-34.9c-23.4,0-35.3,17-47.9,34.9c-13.5,19.2-27.5,39.1-56,39.1c-28.5,0-42.5-19.9-56-39.1
		c-12.6-18-24.5-34.9-47.9-34.9c-23.4,0-35.3,17-47.9,34.9c-13.5,19.2-27.5,39.1-56,39.1c-28.5,0-42.5-19.9-56-39.1
		c-12.6-18-24.5-34.9-47.9-34.9c-23.4,0-35.3,17-47.9,34.9c-13.5,19.2-27.4,39.1-56,39.1c-28.5,0-42.5-19.9-56-39.1
		c-1.6-2.3-3.2-4.6-4.9-6.9V72.2c4.6,5.4,8.8,11.4,13,17.3c12.6,18,24.5,34.9,47.9,34.9c23.4,0,35.3-17,47.9-34.9
		c13.5-19.2,27.5-39.1,56-39.1c28.5,0,42.5,19.9,56,39.1c12.6,18,24.5,34.9,47.9,34.9c23.4,0,35.3-17,47.9-34.9
		c13.5-19.2,27.5-39.1,56-39.1c28.5,0,42.5,19.9,56,39.1c12.6,18,24.5,34.9,47.9,34.9c23.4,0,35.3-17,47.9-34.9
		c13.5-19.2,27.5-39.1,56-39.1c28.5,0,42.5,19.9,56,39.1c12.6,18,24.5,34.9,47.9,34.9c23.4,0,35.3-17,47.9-34.9
		c13.5-19.2,27.5-39.1,56-39.1c28.5,0,42.5,19.9,56,39.1c12.6,18,24.5,34.9,47.9,34.9c23.4,0,35.3-17,47.9-34.9
		c13.5-19.2,27.5-39.1,56-39.1c28.5,0,42.5,19.9,56,39.1c12.6,18,24.5,34.9,47.9,34.9c23.4,0,35.3-17,47.9-34.9
		c13.5-19.2,27.4-39.1,56-39.1c28.5,0,42.5,19.9,56,39.1c12.6,18,24.5,34.9,47.9,34.9c23.4,0,35.3-17,47.9-34.9
		c13.5-19.2,27.5-39.1,56-39.1c28.6,0,42.5,19.9,56,39.1c12.6,18,24.5,34.9,47.9,34.9s35.3-17,47.9-34.9
		c13.5-19.2,27.4-39.1,56-39.1c28.5,0,42.5,19.9,56,39.1c12.6,18,24.5,34.9,47.9,34.9c23.4,0,35.3-17,47.9-34.9
		c13.5-19.2,27.5-39.1,56-39.1c28.5,0,42.5,19.9,56,39.1c12.6,18,24.5,34.9,47.9,34.9c23.4,0,35.3-17,47.9-34.9
		c13.5-19.2,27.4-39.1,56-39.1c28.5,0,42.5,19.9,56,39.1c12.6,18,24.5,34.9,47.9,34.9c23.4,0,35.3-17,47.9-34.9
		C2191.2,83.6,2195.4,77.7,2200,72.2z"/>
	<path d="M2200,170.8v16.1c-1.6,2.3-3.2,4.5-4.9,6.9c-13.5,19.3-27.5,39.1-56,39.1c-28.5,0-42.5-19.9-56-39.1
		c-12.6-18-24.5-34.9-47.9-34.9c-23.4,0-35.3,17-47.9,34.9c-13.5,19.3-27.4,39.1-56,39.1s-42.5-19.9-56-39.1
		c-12.6-18-24.5-34.9-47.9-34.9c-23.4,0-35.3,17-47.9,34.9c-13.5,19.3-27.4,39.1-56,39.1c-28.5,0-42.5-19.9-56-39.1
		c-12.6-18-24.5-34.9-47.9-34.9c-23.4,0-35.3,17-47.9,34.9c-13.5,19.3-27.5,39.1-56,39.1c-28.5,0-42.5-19.9-56-39.1
		c-12.6-18-24.5-34.9-47.9-34.9c-23.4,0-35.3,17-47.9,34.9c-13.5,19.3-27.5,39.1-56,39.1c-28.6,0-42.5-19.9-56-39.1
		c-12.6-18-24.5-34.9-47.9-34.9s-35.3,17-47.9,34.9c-13.5,19.3-27.4,39.1-56,39.1c-28.5,0-42.5-19.9-56-39.1
		c-12.6-18-24.5-34.9-47.9-34.9c-23.4,0-35.3,17-47.9,34.9c-13.5,19.3-27.5,39.1-56,39.1c-28.5,0-42.5-19.9-56-39.1
		c-12.6-18-24.5-34.9-47.9-34.9c-23.4,0-35.3,17-47.9,34.9c-13.5,19.3-27.5,39.1-56,39.1s-42.5-19.9-56-39.1
		c-12.6-18-24.5-34.9-47.9-34.9c-23.4,0-35.3,17-47.9,34.9c-13.5,19.3-27.5,39.1-56,39.1c-28.5,0-42.5-19.9-56-39.1
		c-12.6-18-24.5-34.9-47.9-34.9c-23.4,0-35.3,17-47.9,34.9c-13.5,19.3-27.5,39.1-56,39.1c-28.5,0-42.5-19.9-56-39.1
		c-12.6-18-24.5-34.9-47.9-34.9c-23.4,0-35.3,17-47.9,34.9c-13.5,19.3-27.4,39.1-56,39.1c-28.5,0-42.5-19.9-56-39.1
		c-1.6-2.3-3.2-4.6-4.9-6.9v-16.1c4.6,5.4,8.8,11.4,13,17.3C25.5,206,37.5,223,60.9,223c23.4,0,35.3-17,47.9-34.9
		c13.5-19.3,27.5-39.1,56-39.1c28.5,0,42.5,19.9,56,39.1c12.6,18,24.5,34.9,47.9,34.9c23.4,0,35.3-17,47.9-34.9
		c13.5-19.3,27.5-39.1,56-39.1c28.5,0,42.5,19.9,56,39.1c12.6,18,24.5,34.9,47.9,34.9c23.4,0,35.3-17,47.9-34.9
		c13.5-19.3,27.5-39.1,56-39.1c28.5,0,42.5,19.9,56,39.1c12.6,18,24.5,34.9,47.9,34.9c23.4,0,35.3-17,47.9-34.9
		c13.5-19.3,27.5-39.1,56-39.1c28.5,0,42.5,19.9,56,39.1c12.6,18,24.5,34.9,47.9,34.9c23.4,0,35.3-17,47.9-34.9
		c13.5-19.3,27.5-39.1,56-39.1c28.5,0,42.5,19.9,56,39.1c12.6,18,24.5,34.9,47.9,34.9c23.4,0,35.3-17,47.9-34.9
		c13.5-19.3,27.4-39.1,56-39.1c28.5,0,42.5,19.9,56,39.1c12.6,18,24.5,34.9,47.9,34.9c23.4,0,35.3-17,47.9-34.9
		c13.5-19.3,27.5-39.1,56-39.1c28.6,0,42.5,19.9,56,39.1c12.6,18,24.5,34.9,47.9,34.9s35.3-17,47.9-34.9
		c13.5-19.3,27.4-39.1,56-39.1c28.5,0,42.5,19.9,56,39.1c12.6,18,24.5,34.9,47.9,34.9c23.4,0,35.3-17,47.9-34.9
		c13.5-19.3,27.5-39.1,56-39.1c28.5,0,42.5,19.9,56,39.1c12.6,18,24.5,34.9,47.9,34.9c23.4,0,35.3-17,47.9-34.9
		c13.5-19.3,27.4-39.1,56-39.1c28.5,0,42.5,19.9,56,39.1c12.6,18,24.5,34.9,47.9,34.9c23.4,0,35.3-17,47.9-34.9
		C2191.2,182.2,2195.4,176.2,2200,170.8z"/>
	<path d="M2200,269.4v16.1c-1.6,2.3-3.2,4.5-4.9,6.9c-13.5,19.2-27.5,39.1-56,39.1c-28.5,0-42.5-19.9-56-39.1
		c-12.6-18-24.5-34.9-47.9-34.9c-23.4,0-35.3,17-47.9,34.9c-13.5,19.2-27.4,39.1-56,39.1s-42.5-19.9-56-39.1
		c-12.6-18-24.5-34.9-47.9-34.9c-23.4,0-35.3,17-47.9,34.9c-13.5,19.2-27.4,39.1-56,39.1c-28.5,0-42.5-19.9-56-39.1
		c-12.6-18-24.5-34.9-47.9-34.9c-23.4,0-35.3,17-47.9,34.9c-13.5,19.2-27.5,39.1-56,39.1c-28.5,0-42.5-19.9-56-39.1
		c-12.6-18-24.5-34.9-47.9-34.9c-23.4,0-35.3,17-47.9,34.9c-13.5,19.2-27.5,39.1-56,39.1c-28.6,0-42.5-19.9-56-39.1
		c-12.6-18-24.5-34.9-47.9-34.9s-35.3,17-47.9,34.9c-13.5,19.2-27.4,39.1-56,39.1c-28.5,0-42.5-19.9-56-39.1
		c-12.6-18-24.5-34.9-47.9-34.9c-23.4,0-35.3,17-47.9,34.9c-13.5,19.2-27.5,39.1-56,39.1c-28.5,0-42.5-19.9-56-39.1
		c-12.6-18-24.5-34.9-47.9-34.9c-23.4,0-35.3,17-47.9,34.9c-13.5,19.2-27.5,39.1-56,39.1s-42.5-19.9-56-39.1
		c-12.6-18-24.5-34.9-47.9-34.9c-23.4,0-35.3,17-47.9,34.9c-13.5,19.2-27.5,39.1-56,39.1c-28.5,0-42.5-19.9-56-39.1
		c-12.6-18-24.5-34.9-47.9-34.9c-23.4,0-35.3,17-47.9,34.9c-13.5,19.2-27.5,39.1-56,39.1c-28.5,0-42.5-19.9-56-39.1
		c-12.6-18-24.5-34.9-47.9-34.9c-23.4,0-35.3,17-47.9,34.9c-13.5,19.2-27.4,39.1-56,39.1c-28.5,0-42.5-19.9-56-39.1
		c-1.6-2.3-3.2-4.6-4.9-6.9v-16.1c4.6,5.4,8.8,11.4,13,17.3c12.6,18,24.5,34.9,47.9,34.9c23.4,0,35.3-17,47.9-34.9
		c13.5-19.2,27.5-39.1,56-39.1c28.5,0,42.5,19.9,56,39.1c12.6,18,24.5,34.9,47.9,34.9c23.4,0,35.3-17,47.9-34.9
		c13.5-19.2,27.5-39.1,56-39.1c28.5,0,42.5,19.9,56,39.1c12.6,18,24.5,34.9,47.9,34.9c23.4,0,35.3-17,47.9-34.9
		c13.5-19.2,27.5-39.1,56-39.1c28.5,0,42.5,19.9,56,39.1c12.6,18,24.5,34.9,47.9,34.9c23.4,0,35.3-17,47.9-34.9
		c13.5-19.2,27.5-39.1,56-39.1c28.5,0,42.5,19.9,56,39.1c12.6,18,24.5,34.9,47.9,34.9c23.4,0,35.3-17,47.9-34.9
		c13.5-19.2,27.5-39.1,56-39.1c28.5,0,42.5,19.9,56,39.1c12.6,18,24.5,34.9,47.9,34.9c23.4,0,35.3-17,47.9-34.9
		c13.5-19.2,27.4-39.1,56-39.1c28.5,0,42.5,19.9,56,39.1c12.6,18,24.5,34.9,47.9,34.9c23.4,0,35.3-17,47.9-34.9
		c13.5-19.2,27.5-39.1,56-39.1c28.6,0,42.5,19.9,56,39.1c12.6,18,24.5,34.9,47.9,34.9s35.3-17,47.9-34.9
		c13.5-19.2,27.4-39.1,56-39.1c28.5,0,42.5,19.9,56,39.1c12.6,18,24.5,34.9,47.9,34.9c23.4,0,35.3-17,47.9-34.9
		c13.5-19.2,27.5-39.1,56-39.1c28.5,0,42.5,19.9,56,39.1c12.6,18,24.5,34.9,47.9,34.9c23.4,0,35.3-17,47.9-34.9
		c13.5-19.2,27.4-39.1,56-39.1c28.5,0,42.5,19.9,56,39.1c12.6,18,24.5,34.9,47.9,34.9c23.4,0,35.3-17,47.9-34.9
		C2191.2,280.7,2195.4,274.8,2200,269.4z"/>
	<path d="M2200,367.9V384c-1.6,2.3-3.2,4.5-4.9,6.9c-13.5,19.2-27.5,39.1-56,39.1c-28.5,0-42.5-19.9-56-39.1
		c-12.6-18-24.5-34.9-47.9-34.9c-23.4,0-35.3,17-47.9,34.9c-13.5,19.2-27.4,39.1-56,39.1s-42.5-19.9-56-39.1
		c-12.6-18-24.5-34.9-47.9-34.9c-23.4,0-35.3,17-47.9,34.9c-13.5,19.2-27.4,39.1-56,39.1c-28.5,0-42.5-19.9-56-39.1
		c-12.6-18-24.5-34.9-47.9-34.9c-23.4,0-35.3,17-47.9,34.9c-13.5,19.2-27.5,39.1-56,39.1c-28.5,0-42.5-19.9-56-39.1
		c-12.6-18-24.5-34.9-47.9-34.9c-23.4,0-35.3,17-47.9,34.9c-13.5,19.2-27.5,39.1-56,39.1c-28.6,0-42.5-19.9-56-39.1
		c-12.6-18-24.5-34.9-47.9-34.9s-35.3,17-47.9,34.9c-13.5,19.2-27.4,39.1-56,39.1c-28.5,0-42.5-19.9-56-39.1
		c-12.6-18-24.5-34.9-47.9-34.9c-23.4,0-35.3,17-47.9,34.9c-13.5,19.2-27.5,39.1-56,39.1c-28.5,0-42.5-19.9-56-39.1
		c-12.6-18-24.5-34.9-47.9-34.9c-23.4,0-35.3,17-47.9,34.9c-13.5,19.2-27.5,39.1-56,39.1s-42.5-19.9-56-39.1
		c-12.6-18-24.5-34.9-47.9-34.9c-23.4,0-35.3,17-47.9,34.9C519,410.1,505,430,476.5,430c-28.5,0-42.5-19.9-56-39.1
		c-12.6-18-24.5-34.9-47.9-34.9c-23.4,0-35.3,17-47.9,34.9c-13.5,19.2-27.5,39.1-56,39.1c-28.5,0-42.5-19.9-56-39.1
		c-12.6-18-24.5-34.9-47.9-34.9c-23.4,0-35.3,17-47.9,34.9c-13.5,19.2-27.4,39.1-56,39.1c-28.5,0-42.5-19.9-56-39.1
		c-1.6-2.3-3.2-4.6-4.9-6.9v-16.1c4.6,5.4,8.8,11.4,13,17.3c12.6,18,24.5,34.9,47.9,34.9c23.4,0,35.3-17,47.9-34.9
		c13.5-19.2,27.5-39.1,56-39.1c28.5,0,42.5,19.9,56,39.1c12.6,18,24.5,34.9,47.9,34.9c23.4,0,35.3-17,47.9-34.9
		c13.5-19.2,27.5-39.1,56-39.1c28.5,0,42.5,19.9,56,39.1c12.6,18,24.5,34.9,47.9,34.9c23.4,0,35.3-17,47.9-34.9
		c13.5-19.2,27.5-39.1,56-39.1c28.5,0,42.5,19.9,56,39.1c12.6,18,24.5,34.9,47.9,34.9c23.4,0,35.3-17,47.9-34.9
		c13.5-19.2,27.5-39.1,56-39.1c28.5,0,42.5,19.9,56,39.1c12.6,18,24.5,34.9,47.9,34.9c23.4,0,35.3-17,47.9-34.9
		c13.5-19.2,27.5-39.1,56-39.1c28.5,0,42.5,19.9,56,39.1c12.6,18,24.5,34.9,47.9,34.9c23.4,0,35.3-17,47.9-34.9
		c13.5-19.2,27.4-39.1,56-39.1c28.5,0,42.5,19.9,56,39.1c12.6,18,24.5,34.9,47.9,34.9c23.4,0,35.3-17,47.9-34.9
		c13.5-19.2,27.5-39.1,56-39.1c28.6,0,42.5,19.9,56,39.1c12.6,18,24.5,34.9,47.9,34.9s35.3-17,47.9-34.9
		c13.5-19.2,27.4-39.1,56-39.1c28.5,0,42.5,19.9,56,39.1c12.6,18,24.5,34.9,47.9,34.9c23.4,0,35.3-17,47.9-34.9
		c13.5-19.2,27.5-39.1,56-39.1c28.5,0,42.5,19.9,56,39.1c12.6,18,24.5,34.9,47.9,34.9c23.4,0,35.3-17,47.9-34.9
		c13.5-19.2,27.4-39.1,56-39.1c28.5,0,42.5,19.9,56,39.1c12.6,18,24.5,34.9,47.9,34.9c23.4,0,35.3-17,47.9-34.9
		C2191.2,379.3,2195.4,373.3,2200,367.9z"/>
	<path d="M2200,466.5v16.1c-1.6,2.3-3.2,4.5-4.9,6.9c-13.5,19.2-27.5,39.1-56,39.1c-28.5,0-42.5-19.9-56-39.1
		c-12.6-18-24.5-34.9-47.9-34.9c-23.4,0-35.3,17-47.9,34.9c-13.5,19.2-27.4,39.1-56,39.1s-42.5-19.9-56-39.1
		c-12.6-18-24.5-34.9-47.9-34.9c-23.4,0-35.3,17-47.9,34.9c-13.5,19.2-27.4,39.1-56,39.1c-28.5,0-42.5-19.9-56-39.1
		c-12.6-18-24.5-34.9-47.9-34.9c-23.4,0-35.3,17-47.9,34.9c-13.5,19.2-27.5,39.1-56,39.1c-28.5,0-42.5-19.9-56-39.1
		c-12.6-18-24.5-34.9-47.9-34.9c-23.4,0-35.3,17-47.9,34.9c-13.5,19.2-27.5,39.1-56,39.1c-28.6,0-42.5-19.9-56-39.1
		c-12.6-18-24.5-34.9-47.9-34.9s-35.3,17-47.9,34.9c-13.5,19.2-27.4,39.1-56,39.1c-28.5,0-42.5-19.9-56-39.1
		c-12.6-18-24.5-34.9-47.9-34.9c-23.4,0-35.3,17-47.9,34.9c-13.5,19.2-27.5,39.1-56,39.1c-28.5,0-42.5-19.9-56-39.1
		c-12.6-18-24.5-34.9-47.9-34.9c-23.4,0-35.3,17-47.9,34.9c-13.5,19.2-27.5,39.1-56,39.1s-42.5-19.9-56-39.1
		c-12.6-18-24.5-34.9-47.9-34.9c-23.4,0-35.3,17-47.9,34.9c-13.5,19.2-27.5,39.1-56,39.1c-28.5,0-42.5-19.9-56-39.1
		c-12.6-18-24.5-34.9-47.9-34.9c-23.4,0-35.3,17-47.9,34.9c-13.5,19.2-27.5,39.1-56,39.1c-28.5,0-42.5-19.9-56-39.1
		c-12.6-18-24.5-34.9-47.9-34.9c-23.4,0-35.3,17-47.9,34.9c-13.5,19.2-27.4,39.1-56,39.1c-28.5,0-42.5-19.9-56-39.1
		c-1.6-2.3-3.2-4.6-4.9-6.9v-16.1c4.6,5.4,8.8,11.4,13,17.3c12.6,18,24.5,34.9,47.9,34.9c23.4,0,35.3-17,47.9-34.9
		c13.5-19.2,27.5-39.1,56-39.1c28.5,0,42.5,19.9,56,39.1c12.6,18,24.5,34.9,47.9,34.9c23.4,0,35.3-17,47.9-34.9
		c13.5-19.2,27.5-39.1,56-39.1c28.5,0,42.5,19.9,56,39.1c12.6,18,24.5,34.9,47.9,34.9c23.4,0,35.3-17,47.9-34.9
		c13.5-19.2,27.5-39.1,56-39.1c28.5,0,42.5,19.9,56,39.1c12.6,18,24.5,34.9,47.9,34.9c23.4,0,35.3-17,47.9-34.9
		c13.5-19.2,27.5-39.1,56-39.1c28.5,0,42.5,19.9,56,39.1c12.6,18,24.5,34.9,47.9,34.9c23.4,0,35.3-17,47.9-34.9
		c13.5-19.2,27.5-39.1,56-39.1c28.5,0,42.5,19.9,56,39.1c12.6,18,24.5,34.9,47.9,34.9c23.4,0,35.3-17,47.9-34.9
		c13.5-19.2,27.4-39.1,56-39.1c28.5,0,42.5,19.9,56,39.1c12.6,18,24.5,34.9,47.9,34.9c23.4,0,35.3-17,47.9-34.9
		c13.5-19.2,27.5-39.1,56-39.1c28.6,0,42.5,19.9,56,39.1c12.6,18,24.5,34.9,47.9,34.9s35.3-17,47.9-34.9
		c13.5-19.2,27.4-39.1,56-39.1c28.5,0,42.5,19.9,56,39.1c12.6,18,24.5,34.9,47.9,34.9c23.4,0,35.3-17,47.9-34.9
		c13.5-19.2,27.5-39.1,56-39.1c28.5,0,42.5,19.9,56,39.1c12.6,18,24.5,34.9,47.9,34.9c23.4,0,35.3-17,47.9-34.9
		c13.5-19.2,27.4-39.1,56-39.1c28.5,0,42.5,19.9,56,39.1c12.6,18,24.5,34.9,47.9,34.9c23.4,0,35.3-17,47.9-34.9
		C2191.2,477.9,2195.4,471.9,2200,466.5z"/>
	<path d="M2200,565v16.1c-1.6,2.3-3.2,4.5-4.9,6.9c-13.5,19.2-27.5,39.1-56,39.1c-28.5,0-42.5-19.9-56-39.1
		c-12.6-18-24.5-34.9-47.9-34.9c-23.4,0-35.3,17-47.9,34.9c-13.5,19.2-27.4,39.1-56,39.1s-42.5-19.9-56-39.1
		c-12.6-18-24.5-34.9-47.9-34.9c-23.4,0-35.3,17-47.9,34.9c-13.5,19.2-27.4,39.1-56,39.1c-28.5,0-42.5-19.9-56-39.1
		c-12.6-18-24.5-34.9-47.9-34.9c-23.4,0-35.3,17-47.9,34.9c-13.5,19.2-27.5,39.1-56,39.1c-28.5,0-42.5-19.9-56-39.1
		c-12.6-18-24.5-34.9-47.9-34.9c-23.4,0-35.3,17-47.9,34.9c-13.5,19.2-27.5,39.1-56,39.1c-28.6,0-42.5-19.9-56-39.1
		c-12.6-18-24.5-34.9-47.9-34.9s-35.3,17-47.9,34.9c-13.5,19.2-27.4,39.1-56,39.1c-28.5,0-42.5-19.9-56-39.1
		c-12.6-18-24.5-34.9-47.9-34.9c-23.4,0-35.3,17-47.9,34.9c-13.5,19.2-27.5,39.1-56,39.1c-28.5,0-42.5-19.9-56-39.1
		c-12.6-18-24.5-34.9-47.9-34.9c-23.4,0-35.3,17-47.9,34.9c-13.5,19.2-27.5,39.1-56,39.1s-42.5-19.9-56-39.1
		c-12.6-18-24.5-34.9-47.9-34.9c-23.4,0-35.3,17-47.9,34.9c-13.5,19.2-27.5,39.1-56,39.1c-28.5,0-42.5-19.9-56-39.1
		c-12.6-18-24.5-34.9-47.9-34.9c-23.4,0-35.3,17-47.9,34.9c-13.5,19.2-27.5,39.1-56,39.1c-28.5,0-42.5-19.9-56-39.1
		c-12.6-18-24.5-34.9-47.9-34.9c-23.4,0-35.3,17-47.9,34.9c-13.5,19.2-27.4,39.1-56,39.1c-28.5,0-42.5-19.9-56-39.1
		c-1.6-2.3-3.2-4.6-4.9-6.9V565c4.6,5.4,8.8,11.4,13,17.3c12.6,18,24.5,34.9,47.9,34.9c23.4,0,35.3-17,47.9-34.9
		c13.5-19.2,27.5-39.1,56-39.1c28.5,0,42.5,19.9,56,39.1c12.6,18,24.5,34.9,47.9,34.9c23.4,0,35.3-17,47.9-34.9
		c13.5-19.2,27.5-39.1,56-39.1c28.5,0,42.5,19.9,56,39.1c12.6,18,24.5,34.9,47.9,34.9c23.4,0,35.3-17,47.9-34.9
		c13.5-19.2,27.5-39.1,56-39.1c28.5,0,42.5,19.9,56,39.1c12.6,18,24.5,34.9,47.9,34.9c23.4,0,35.3-17,47.9-34.9
		c13.5-19.2,27.5-39.1,56-39.1c28.5,0,42.5,19.9,56,39.1c12.6,18,24.5,34.9,47.9,34.9c23.4,0,35.3-17,47.9-34.9
		c13.5-19.2,27.5-39.1,56-39.1c28.5,0,42.5,19.9,56,39.1c12.6,18,24.5,34.9,47.9,34.9c23.4,0,35.3-17,47.9-34.9
		c13.5-19.2,27.4-39.1,56-39.1c28.5,0,42.5,19.9,56,39.1c12.6,18,24.5,34.9,47.9,34.9c23.4,0,35.3-17,47.9-34.9
		c13.5-19.2,27.5-39.1,56-39.1c28.6,0,42.5,19.9,56,39.1c12.6,18,24.5,34.9,47.9,34.9s35.3-17,47.9-34.9
		c13.5-19.2,27.4-39.1,56-39.1c28.5,0,42.5,19.9,56,39.1c12.6,18,24.5,34.9,47.9,34.9c23.4,0,35.3-17,47.9-34.9
		c13.5-19.2,27.5-39.1,56-39.1c28.5,0,42.5,19.9,56,39.1c12.6,18,24.5,34.9,47.9,34.9c23.4,0,35.3-17,47.9-34.9
		c13.5-19.2,27.4-39.1,56-39.1c28.5,0,42.5,19.9,56,39.1c12.6,18,24.5,34.9,47.9,34.9c23.4,0,35.3-17,47.9-34.9
		C2191.2,576.4,2195.4,570.5,2200,565z"/>
	<path d="M2200,663.6v16.1c-1.6,2.3-3.2,4.5-4.9,6.9c-13.5,19.2-27.5,39.1-56,39.1c-28.5,0-42.5-19.9-56-39.1
		c-12.6-18-24.5-34.9-47.9-34.9c-23.4,0-35.3,17-47.9,34.9c-13.5,19.2-27.4,39.1-56,39.1s-42.5-19.9-56-39.1
		c-12.6-18-24.5-34.9-47.9-34.9c-23.4,0-35.3,17-47.9,34.9c-13.5,19.2-27.4,39.1-56,39.1c-28.5,0-42.5-19.9-56-39.1
		c-12.6-18-24.5-34.9-47.9-34.9c-23.4,0-35.3,17-47.9,34.9c-13.5,19.2-27.5,39.1-56,39.1c-28.5,0-42.5-19.9-56-39.1
		c-12.6-18-24.5-34.9-47.9-34.9c-23.4,0-35.3,17-47.9,34.9c-13.5,19.2-27.5,39.1-56,39.1c-28.6,0-42.5-19.9-56-39.1
		c-12.6-18-24.5-34.9-47.9-34.9s-35.3,17-47.9,34.9c-13.5,19.2-27.4,39.1-56,39.1c-28.5,0-42.5-19.9-56-39.1
		c-12.6-18-24.5-34.9-47.9-34.9c-23.4,0-35.3,17-47.9,34.9c-13.5,19.2-27.5,39.1-56,39.1c-28.5,0-42.5-19.9-56-39.1
		c-12.6-18-24.5-34.9-47.9-34.9c-23.4,0-35.3,17-47.9,34.9c-13.5,19.2-27.5,39.1-56,39.1s-42.5-19.9-56-39.1
		c-12.6-18-24.5-34.9-47.9-34.9c-23.4,0-35.3,17-47.9,34.9c-13.5,19.2-27.5,39.1-56,39.1c-28.5,0-42.5-19.9-56-39.1
		c-12.6-18-24.5-34.9-47.9-34.9c-23.4,0-35.3,17-47.9,34.9c-13.5,19.2-27.5,39.1-56,39.1c-28.5,0-42.5-19.9-56-39.1
		c-12.6-18-24.5-34.9-47.9-34.9c-23.4,0-35.3,17-47.9,34.9c-13.5,19.2-27.4,39.1-56,39.1c-28.5,0-42.5-19.9-56-39.1
		c-1.6-2.3-3.2-4.6-4.9-6.9v-16.1c4.6,5.4,8.8,11.4,13,17.3c12.6,18,24.5,34.9,47.9,34.9c23.4,0,35.3-17,47.9-34.9
		c13.5-19.2,27.5-39.1,56-39.1c28.5,0,42.5,19.9,56,39.1c12.6,18,24.5,34.9,47.9,34.9c23.4,0,35.3-17,47.9-34.9
		c13.5-19.2,27.5-39.1,56-39.1c28.5,0,42.5,19.9,56,39.1c12.6,18,24.5,34.9,47.9,34.9c23.4,0,35.3-17,47.9-34.9
		c13.5-19.2,27.5-39.1,56-39.1c28.5,0,42.5,19.9,56,39.1c12.6,18,24.5,34.9,47.9,34.9c23.4,0,35.3-17,47.9-34.9
		c13.5-19.2,27.5-39.1,56-39.1c28.5,0,42.5,19.9,56,39.1c12.6,18,24.5,34.9,47.9,34.9c23.4,0,35.3-17,47.9-34.9
		c13.5-19.2,27.5-39.1,56-39.1c28.5,0,42.5,19.9,56,39.1c12.6,18,24.5,34.9,47.9,34.9c23.4,0,35.3-17,47.9-34.9
		c13.5-19.2,27.4-39.1,56-39.1c28.5,0,42.5,19.9,56,39.1c12.6,18,24.5,34.9,47.9,34.9c23.4,0,35.3-17,47.9-34.9
		c13.5-19.2,27.5-39.1,56-39.1c28.6,0,42.5,19.9,56,39.1c12.6,18,24.5,34.9,47.9,34.9s35.3-17,47.9-34.9
		c13.5-19.2,27.4-39.1,56-39.1c28.5,0,42.5,19.9,56,39.1c12.6,18,24.5,34.9,47.9,34.9c23.4,0,35.3-17,47.9-34.9
		c13.5-19.2,27.5-39.1,56-39.1c28.5,0,42.5,19.9,56,39.1c12.6,18,24.5,34.9,47.9,34.9c23.4,0,35.3-17,47.9-34.9
		c13.5-19.2,27.4-39.1,56-39.1c28.5,0,42.5,19.9,56,39.1c12.6,18,24.5,34.9,47.9,34.9c23.4,0,35.3-17,47.9-34.9
		C2191.2,675,2195.4,669,2200,663.6z"/>
	<path d="M2200,762.2v16.1c-1.6,2.3-3.2,4.5-4.9,6.9c-13.5,19.2-27.5,39.1-56,39.1c-28.5,0-42.5-19.9-56-39.1
		c-12.6-18-24.5-34.9-47.9-34.9c-23.4,0-35.3,17-47.9,34.9c-13.5,19.2-27.4,39.1-56,39.1s-42.5-19.9-56-39.1
		c-12.6-18-24.5-34.9-47.9-34.9c-23.4,0-35.3,17-47.9,34.9c-13.5,19.2-27.4,39.1-56,39.1c-28.5,0-42.5-19.9-56-39.1
		c-12.6-18-24.5-34.9-47.9-34.9c-23.4,0-35.3,17-47.9,34.9c-13.5,19.2-27.5,39.1-56,39.1c-28.5,0-42.5-19.9-56-39.1
		c-12.6-18-24.5-34.9-47.9-34.9c-23.4,0-35.3,17-47.9,34.9c-13.5,19.2-27.5,39.1-56,39.1c-28.6,0-42.5-19.9-56-39.1
		c-12.6-18-24.5-34.9-47.9-34.9s-35.3,17-47.9,34.9c-13.5,19.2-27.4,39.1-56,39.1c-28.5,0-42.5-19.9-56-39.1
		c-12.6-18-24.5-34.9-47.9-34.9c-23.4,0-35.3,17-47.9,34.9c-13.5,19.2-27.5,39.1-56,39.1c-28.5,0-42.5-19.9-56-39.1
		c-12.6-18-24.5-34.9-47.9-34.9c-23.4,0-35.3,17-47.9,34.9c-13.5,19.2-27.5,39.1-56,39.1c-28.5,0-42.5-19.9-56-39.1
		c-12.6-18-24.5-34.9-47.9-34.9c-23.4,0-35.3,17-47.9,34.9c-13.5,19.2-27.5,39.1-56,39.1c-28.5,0-42.5-19.9-56-39.1
		c-12.6-18-24.5-34.9-47.9-34.9c-23.4,0-35.3,17-47.9,34.9c-13.5,19.2-27.5,39.1-56,39.1c-28.5,0-42.5-19.9-56-39.1
		c-12.6-18-24.5-34.9-47.9-34.9c-23.4,0-35.3,17-47.9,34.9c-13.5,19.2-27.4,39.1-56,39.1c-28.5,0-42.5-19.9-56-39.1
		c-1.6-2.3-3.2-4.6-4.9-6.9v-16.1c4.6,5.4,8.8,11.4,13,17.3c12.6,18,24.5,34.9,47.9,34.9c23.4,0,35.3-17,47.9-34.9
		c13.5-19.2,27.5-39.1,56-39.1c28.5,0,42.5,19.9,56,39.1c12.6,18,24.5,34.9,47.9,34.9c23.4,0,35.3-17,47.9-34.9
		c13.5-19.2,27.5-39.1,56-39.1c28.5,0,42.5,19.9,56,39.1c12.6,18,24.5,34.9,47.9,34.9c23.4,0,35.3-17,47.9-34.9
		c13.5-19.2,27.5-39.1,56-39.1c28.5,0,42.5,19.9,56,39.1c12.6,18,24.5,34.9,47.9,34.9c23.4,0,35.3-17,47.9-34.9
		c13.5-19.2,27.5-39.1,56-39.1c28.5,0,42.5,19.9,56,39.1c12.6,18,24.5,34.9,47.9,34.9c23.4,0,35.3-17,47.9-34.9
		c13.5-19.2,27.5-39.1,56-39.1c28.5,0,42.5,19.9,56,39.1c12.6,18,24.5,34.9,47.9,34.9c23.4,0,35.3-17,47.9-34.9
		c13.5-19.2,27.4-39.1,56-39.1c28.5,0,42.5,19.9,56,39.1c12.6,18,24.5,34.9,47.9,34.9c23.4,0,35.3-17,47.9-34.9
		c13.5-19.2,27.5-39.1,56-39.1c28.6,0,42.5,19.9,56,39.1c12.6,18,24.5,34.9,47.9,34.9s35.3-17,47.9-34.9
		c13.5-19.2,27.4-39.1,56-39.1c28.5,0,42.5,19.9,56,39.1c12.6,18,24.5,34.9,47.9,34.9c23.4,0,35.3-17,47.9-34.9
		c13.5-19.2,27.5-39.1,56-39.1c28.5,0,42.5,19.9,56,39.1c12.6,18,24.5,34.9,47.9,34.9c23.4,0,35.3-17,47.9-34.9
		c13.5-19.2,27.4-39.1,56-39.1c28.5,0,42.5,19.9,56,39.1c12.6,18,24.5,34.9,47.9,34.9c23.4,0,35.3-17,47.9-34.9
		C2191.2,773.5,2195.4,767.6,2200,762.2z"/>
	<path d="M2200,860.7v16.1c-1.6,2.3-3.2,4.5-4.9,6.9c-13.5,19.2-27.5,39.1-56,39.1c-28.5,0-42.5-19.9-56-39.1
		c-12.6-18-24.5-34.9-47.9-34.9c-23.4,0-35.3,17-47.9,34.9c-13.5,19.2-27.4,39.1-56,39.1s-42.5-19.9-56-39.1
		c-12.6-18-24.5-34.9-47.9-34.9c-23.4,0-35.3,17-47.9,34.9c-13.5,19.2-27.4,39.1-56,39.1c-28.5,0-42.5-19.9-56-39.1
		c-12.6-18-24.5-34.9-47.9-34.9c-23.4,0-35.3,17-47.9,34.9c-13.5,19.2-27.5,39.1-56,39.1c-28.5,0-42.5-19.9-56-39.1
		c-12.6-18-24.5-34.9-47.9-34.9c-23.4,0-35.3,17-47.9,34.9c-13.5,19.2-27.5,39.1-56,39.1c-28.6,0-42.5-19.9-56-39.1
		c-12.6-18-24.5-34.9-47.9-34.9s-35.3,17-47.9,34.9c-13.5,19.2-27.4,39.1-56,39.1c-28.5,0-42.5-19.9-56-39.1
		c-12.6-18-24.5-34.9-47.9-34.9c-23.4,0-35.3,17-47.9,34.9c-13.5,19.2-27.5,39.1-56,39.1c-28.5,0-42.5-19.9-56-39.1
		c-12.6-18-24.5-34.9-47.9-34.9c-23.4,0-35.3,17-47.9,34.9c-13.5,19.2-27.5,39.1-56,39.1s-42.5-19.9-56-39.1
		c-12.6-18-24.5-34.9-47.9-34.9c-23.4,0-35.3,17-47.9,34.9c-13.5,19.2-27.5,39.1-56,39.1c-28.5,0-42.5-19.9-56-39.1
		c-12.6-18-24.5-34.9-47.9-34.9c-23.4,0-35.3,17-47.9,34.9c-13.5,19.2-27.5,39.1-56,39.1c-28.5,0-42.5-19.9-56-39.1
		c-12.6-18-24.5-34.9-47.9-34.9c-23.4,0-35.3,17-47.9,34.9c-13.5,19.2-27.4,39.1-56,39.1c-28.5,0-42.5-19.9-56-39.1
		c-1.6-2.3-3.2-4.6-4.9-6.9v-16.1c4.6,5.4,8.8,11.4,13,17.3c12.6,18,24.5,34.9,47.9,34.9c23.4,0,35.3-17,47.9-34.9
		c13.5-19.2,27.5-39.1,56-39.1c28.5,0,42.5,19.9,56,39.1c12.6,18,24.5,34.9,47.9,34.9c23.4,0,35.3-17,47.9-34.9
		c13.5-19.2,27.5-39.1,56-39.1c28.5,0,42.5,19.9,56,39.1c12.6,18,24.5,34.9,47.9,34.9c23.4,0,35.3-17,47.9-34.9
		c13.5-19.2,27.5-39.1,56-39.1c28.5,0,42.5,19.9,56,39.1c12.6,18,24.5,34.9,47.9,34.9c23.4,0,35.3-17,47.9-34.9
		c13.5-19.2,27.5-39.1,56-39.1c28.5,0,42.5,19.9,56,39.1c12.6,18,24.5,34.9,47.9,34.9c23.4,0,35.3-17,47.9-34.9
		c13.5-19.2,27.5-39.1,56-39.1c28.5,0,42.5,19.9,56,39.1c12.6,18,24.5,34.9,47.9,34.9c23.4,0,35.3-17,47.9-34.9
		c13.5-19.2,27.4-39.1,56-39.1c28.5,0,42.5,19.9,56,39.1c12.6,18,24.5,34.9,47.9,34.9c23.4,0,35.3-17,47.9-34.9
		c13.5-19.2,27.5-39.1,56-39.1c28.6,0,42.5,19.9,56,39.1c12.6,18,24.5,34.9,47.9,34.9s35.3-17,47.9-34.9
		c13.5-19.2,27.4-39.1,56-39.1c28.5,0,42.5,19.9,56,39.1c12.6,18,24.5,34.9,47.9,34.9c23.4,0,35.3-17,47.9-34.9
		c13.5-19.2,27.5-39.1,56-39.1c28.5,0,42.5,19.9,56,39.1c12.6,18,24.5,34.9,47.9,34.9c23.4,0,35.3-17,47.9-34.9
		c13.5-19.2,27.4-39.1,56-39.1c28.5,0,42.5,19.9,56,39.1c12.6,18,24.5,34.9,47.9,34.9c23.4,0,35.3-17,47.9-34.9
		C2191.2,872.1,2195.4,866.1,2200,860.7z"/>
	<path d="M2200,959.3v16.1c-1.6,2.3-3.2,4.5-4.9,6.9c-13.5,19.2-27.5,39.1-56,39.1c-28.5,0-42.5-19.9-56-39.1
		c-12.6-18-24.5-34.9-47.9-34.9c-23.4,0-35.3,17-47.9,34.9c-13.5,19.2-27.4,39.1-56,39.1s-42.5-19.9-56-39.1
		c-12.6-18-24.5-34.9-47.9-34.9c-23.4,0-35.3,17-47.9,34.9c-13.5,19.2-27.4,39.1-56,39.1c-28.5,0-42.5-19.9-56-39.1
		c-12.6-18-24.5-34.9-47.9-34.9c-23.4,0-35.3,17-47.9,34.9c-13.5,19.2-27.5,39.1-56,39.1c-28.5,0-42.5-19.9-56-39.1
		c-12.6-18-24.5-34.9-47.9-34.9c-23.4,0-35.3,17-47.9,34.9c-13.5,19.2-27.5,39.1-56,39.1c-28.6,0-42.5-19.9-56-39.1
		c-12.6-18-24.5-34.9-47.9-34.9s-35.3,17-47.9,34.9c-13.5,19.2-27.4,39.1-56,39.1c-28.5,0-42.5-19.9-56-39.1
		c-12.6-18-24.5-34.9-47.9-34.9c-23.4,0-35.3,17-47.9,34.9c-13.5,19.2-27.5,39.1-56,39.1c-28.5,0-42.5-19.9-56-39.1
		c-12.6-18-24.5-34.9-47.9-34.9c-23.4,0-35.3,17-47.9,34.9c-13.5,19.2-27.5,39.1-56,39.1s-42.5-19.9-56-39.1
		c-12.6-18-24.5-34.9-47.9-34.9c-23.4,0-35.3,17-47.9,34.9c-13.5,19.2-27.5,39.1-56,39.1c-28.5,0-42.5-19.9-56-39.1
		c-12.6-18-24.5-34.9-47.9-34.9c-23.4,0-35.3,17-47.9,34.9c-13.5,19.2-27.5,39.1-56,39.1c-28.5,0-42.5-19.9-56-39.1
		c-12.6-18-24.5-34.9-47.9-34.9c-23.4,0-35.3,17-47.9,34.9c-13.5,19.2-27.4,39.1-56,39.1c-28.5,0-42.5-19.9-56-39.1
		c-1.6-2.3-3.2-4.6-4.9-6.9v-16.1c4.6,5.4,8.8,11.4,13,17.3c12.6,18,24.5,34.9,47.9,34.9c23.4,0,35.3-17,47.9-34.9
		c13.5-19.2,27.5-39.1,56-39.1c28.5,0,42.5,19.9,56,39.1c12.6,18,24.5,34.9,47.9,34.9c23.4,0,35.3-17,47.9-34.9
		c13.5-19.2,27.5-39.1,56-39.1c28.5,0,42.5,19.9,56,39.1c12.6,18,24.5,34.9,47.9,34.9c23.4,0,35.3-17,47.9-34.9
		c13.5-19.2,27.5-39.1,56-39.1c28.5,0,42.5,19.9,56,39.1c12.6,18,24.5,34.9,47.9,34.9c23.4,0,35.3-17,47.9-34.9
		c13.5-19.2,27.5-39.1,56-39.1c28.5,0,42.5,19.9,56,39.1c12.6,18,24.5,34.9,47.9,34.9c23.4,0,35.3-17,47.9-34.9
		c13.5-19.2,27.5-39.1,56-39.1c28.5,0,42.5,19.9,56,39.1c12.6,18,24.5,34.9,47.9,34.9c23.4,0,35.3-17,47.9-34.9
		c13.5-19.2,27.4-39.1,56-39.1c28.5,0,42.5,19.9,56,39.1c12.6,18,24.5,34.9,47.9,34.9c23.4,0,35.3-17,47.9-34.9
		c13.5-19.2,27.5-39.1,56-39.1c28.6,0,42.5,19.9,56,39.1c12.6,18,24.5,34.9,47.9,34.9s35.3-17,47.9-34.9
		c13.5-19.2,27.4-39.1,56-39.1c28.5,0,42.5,19.9,56,39.1c12.6,18,24.5,34.9,47.9,34.9c23.4,0,35.3-17,47.9-34.9
		c13.5-19.2,27.5-39.1,56-39.1c28.5,0,42.5,19.9,56,39.1c12.6,18,24.5,34.9,47.9,34.9c23.4,0,35.3-17,47.9-34.9
		c13.5-19.2,27.4-39.1,56-39.1c28.5,0,42.5,19.9,56,39.1c12.6,18,24.5,34.9,47.9,34.9c23.4,0,35.3-17,47.9-34.9
		C2191.2,970.7,2195.4,964.7,2200,959.3z"/>
	<path d="M2200,1057.8v16.1c-1.6,2.3-3.2,4.6-4.9,6.9c-13.5,19.2-27.5,39.1-56,39.1c-28.5,0-42.5-19.9-56-39.1
		c-12.6-18-24.5-34.9-47.9-34.9c-23.4,0-35.3,17-47.9,34.9c-13.5,19.2-27.4,39.1-56,39.1s-42.5-19.9-56-39.1
		c-12.6-18-24.5-34.9-47.9-34.9c-23.4,0-35.3,17-47.9,34.9c-13.5,19.2-27.4,39.1-56,39.1c-28.5,0-42.5-19.9-56-39.1
		c-12.6-18-24.5-34.9-47.9-34.9c-23.4,0-35.3,17-47.9,34.9c-13.5,19.2-27.5,39.1-56,39.1c-28.5,0-42.5-19.9-56-39.1
		c-12.6-18-24.5-34.9-47.9-34.9c-23.4,0-35.3,17-47.9,34.9c-13.5,19.2-27.5,39.1-56,39.1c-28.6,0-42.5-19.9-56-39.1
		c-12.6-18-24.5-34.9-47.9-34.9s-35.3,17-47.9,34.9c-13.5,19.2-27.4,39.1-56,39.1c-28.5,0-42.5-19.9-56-39.1
		c-12.6-18-24.5-34.9-47.9-34.9c-23.4,0-35.3,17-47.9,34.9c-13.5,19.2-27.5,39.1-56,39.1c-28.5,0-42.5-19.9-56-39.1
		c-12.6-18-24.5-34.9-47.9-34.9c-23.4,0-35.3,17-47.9,34.9c-13.5,19.2-27.5,39.1-56,39.1c-28.5,0-42.5-19.9-56-39.1
		c-12.6-18-24.5-34.9-47.9-34.9c-23.4,0-35.3,17-47.9,34.9c-13.5,19.2-27.5,39.1-56,39.1c-28.5,0-42.5-19.9-56-39.1
		c-12.6-18-24.5-34.9-47.9-34.9c-23.4,0-35.3,17-47.9,34.9c-13.5,19.2-27.5,39.1-56,39.1c-28.5,0-42.5-19.9-56-39.1
		c-12.6-18-24.5-34.9-47.9-34.9c-23.4,0-35.3,17-47.9,34.9c-13.5,19.2-27.4,39.1-56,39.1c-28.5,0-42.5-19.9-56-39.1
		c-1.6-2.3-3.2-4.6-4.9-6.9v-16.1c4.6,5.4,8.8,11.4,13,17.3c12.6,18,24.5,34.9,47.9,34.9c23.4,0,35.3-17,47.9-34.9
		c13.5-19.2,27.5-39.1,56-39.1c28.5,0,42.5,19.9,56,39.1c12.6,18,24.5,34.9,47.9,34.9c23.4,0,35.3-17,47.9-34.9
		c13.5-19.2,27.5-39.1,56-39.1c28.5,0,42.5,19.9,56,39.1c12.6,18,24.5,34.9,47.9,34.9c23.4,0,35.3-17,47.9-34.9
		c13.5-19.2,27.5-39.1,56-39.1c28.5,0,42.5,19.9,56,39.1c12.6,18,24.5,34.9,47.9,34.9c23.4,0,35.3-17,47.9-34.9
		c13.5-19.2,27.5-39.1,56-39.1c28.5,0,42.5,19.9,56,39.1c12.6,18,24.5,34.9,47.9,34.9c23.4,0,35.3-17,47.9-34.9
		c13.5-19.2,27.5-39.1,56-39.1c28.5,0,42.5,19.9,56,39.1c12.6,18,24.5,34.9,47.9,34.9c23.4,0,35.3-17,47.9-34.9
		c13.5-19.2,27.4-39.1,56-39.1c28.5,0,42.5,19.9,56,39.1c12.6,18,24.5,34.9,47.9,34.9c23.4,0,35.3-17,47.9-34.9
		c13.5-19.2,27.5-39.1,56-39.1c28.6,0,42.5,19.9,56,39.1c12.6,18,24.5,34.9,47.9,34.9s35.3-17,47.9-34.9
		c13.5-19.2,27.4-39.1,56-39.1c28.5,0,42.5,19.9,56,39.1c12.6,18,24.5,34.9,47.9,34.9c23.4,0,35.3-17,47.9-34.9
		c13.5-19.2,27.5-39.1,56-39.1c28.5,0,42.5,19.9,56,39.1c12.6,18,24.5,34.9,47.9,34.9c23.4,0,35.3-17,47.9-34.9
		c13.5-19.2,27.4-39.1,56-39.1c28.5,0,42.5,19.9,56,39.1c12.6,18,24.5,34.9,47.9,34.9c23.4,0,35.3-17,47.9-34.9
		C2191.2,1069.2,2195.4,1063.3,2200,1057.8z"/>
	<path d="M2200,1156.4v16.1c-1.6,2.3-3.2,4.6-4.9,6.9c-13.5,19.2-27.5,39.1-56,39.1c-28.5,0-42.5-19.9-56-39.1
		c-12.6-18-24.5-34.9-47.9-34.9c-23.4,0-35.3,17-47.9,34.9c-13.5,19.2-27.4,39.1-56,39.1s-42.5-19.9-56-39.1
		c-12.6-18-24.5-34.9-47.9-34.9c-23.4,0-35.3,17-47.9,34.9c-13.5,19.2-27.4,39.1-56,39.1c-28.5,0-42.5-19.9-56-39.1
		c-12.6-18-24.5-34.9-47.9-34.9c-23.4,0-35.3,17-47.9,34.9c-13.5,19.2-27.5,39.1-56,39.1c-28.5,0-42.5-19.9-56-39.1
		c-12.6-18-24.5-34.9-47.9-34.9c-23.4,0-35.3,17-47.9,34.9c-13.5,19.2-27.5,39.1-56,39.1c-28.6,0-42.5-19.9-56-39.1
		c-12.6-18-24.5-34.9-47.9-34.9s-35.3,17-47.9,34.9c-13.5,19.2-27.4,39.1-56,39.1c-28.5,0-42.5-19.9-56-39.1
		c-12.6-18-24.5-34.9-47.9-34.9c-23.4,0-35.3,17-47.9,34.9c-13.5,19.2-27.5,39.1-56,39.1c-28.5,0-42.5-19.9-56-39.1
		c-12.6-18-24.5-34.9-47.9-34.9c-23.4,0-35.3,17-47.9,34.9c-13.5,19.2-27.5,39.1-56,39.1s-42.5-19.9-56-39.1
		c-12.6-18-24.5-34.9-47.9-34.9c-23.4,0-35.3,17-47.9,34.9c-13.5,19.2-27.5,39.1-56,39.1c-28.5,0-42.5-19.9-56-39.1
		c-12.6-18-24.5-34.9-47.9-34.9c-23.4,0-35.3,17-47.9,34.9c-13.5,19.2-27.5,39.1-56,39.1c-28.5,0-42.5-19.9-56-39.1
		c-12.6-18-24.5-34.9-47.9-34.9c-23.4,0-35.3,17-47.9,34.9c-13.5,19.2-27.4,39.1-56,39.1c-28.5,0-42.5-19.9-56-39.1
		c-1.6-2.3-3.2-4.6-4.9-6.9v-16.1c4.6,5.4,8.8,11.4,13,17.3c12.6,18,24.5,34.9,47.9,34.9c23.4,0,35.3-17,47.9-34.9
		c13.5-19.2,27.5-39.1,56-39.1c28.5,0,42.5,19.9,56,39.1c12.6,18,24.5,34.9,47.9,34.9c23.4,0,35.3-17,47.9-34.9
		c13.5-19.2,27.5-39.1,56-39.1c28.5,0,42.5,19.9,56,39.1c12.6,18,24.5,34.9,47.9,34.9c23.4,0,35.3-17,47.9-34.9
		c13.5-19.2,27.5-39.1,56-39.1c28.5,0,42.5,19.9,56,39.1c12.6,18,24.5,34.9,47.9,34.9c23.4,0,35.3-17,47.9-34.9
		c13.5-19.2,27.5-39.1,56-39.1c28.5,0,42.5,19.9,56,39.1c12.6,18,24.5,34.9,47.9,34.9c23.4,0,35.3-17,47.9-34.9
		c13.5-19.2,27.5-39.1,56-39.1c28.5,0,42.5,19.9,56,39.1c12.6,18,24.5,34.9,47.9,34.9c23.4,0,35.3-17,47.9-34.9
		c13.5-19.2,27.4-39.1,56-39.1c28.5,0,42.5,19.9,56,39.1c12.6,18,24.5,34.9,47.9,34.9c23.4,0,35.3-17,47.9-34.9
		c13.5-19.2,27.5-39.1,56-39.1c28.6,0,42.5,19.9,56,39.1c12.6,18,24.5,34.9,47.9,34.9s35.3-17,47.9-34.9
		c13.5-19.2,27.4-39.1,56-39.1c28.5,0,42.5,19.9,56,39.1c12.6,18,24.5,34.9,47.9,34.9c23.4,0,35.3-17,47.9-34.9
		c13.5-19.2,27.5-39.1,56-39.1c28.5,0,42.5,19.9,56,39.1c12.6,18,24.5,34.9,47.9,34.9c23.4,0,35.3-17,47.9-34.9
		c13.5-19.2,27.4-39.1,56-39.1c28.5,0,42.5,19.9,56,39.1c12.6,18,24.5,34.9,47.9,34.9c23.4,0,35.3-17,47.9-34.9
		C2191.2,1167.8,2195.4,1161.8,2200,1156.4z"/>
	<path d="M2200,1255v16.1c-1.6,2.3-3.2,4.5-4.9,6.9c-13.5,19.3-27.5,39.1-56,39.1c-28.5,0-42.5-19.9-56-39.1
		c-12.6-18-24.5-34.9-47.9-34.9c-23.4,0-35.3,17-47.9,34.9c-13.5,19.3-27.4,39.1-56,39.1s-42.5-19.9-56-39.1
		c-12.6-18-24.5-34.9-47.9-34.9c-23.4,0-35.3,17-47.9,34.9c-13.5,19.3-27.4,39.1-56,39.1c-28.5,0-42.5-19.9-56-39.1
		c-12.6-18-24.5-34.9-47.9-34.9c-23.4,0-35.3,17-47.9,34.9c-13.5,19.3-27.5,39.1-56,39.1c-28.5,0-42.5-19.9-56-39.1
		c-12.6-18-24.5-34.9-47.9-34.9c-23.4,0-35.3,17-47.9,34.9c-13.5,19.3-27.5,39.1-56,39.1c-28.6,0-42.5-19.9-56-39.1
		c-12.6-18-24.5-34.9-47.9-34.9s-35.3,17-47.9,34.9c-13.5,19.3-27.4,39.1-56,39.1c-28.5,0-42.5-19.9-56-39.1
		c-12.6-18-24.5-34.9-47.9-34.9c-23.4,0-35.3,17-47.9,34.9c-13.5,19.3-27.5,39.1-56,39.1c-28.5,0-42.5-19.9-56-39.1
		c-12.6-18-24.5-34.9-47.9-34.9c-23.4,0-35.3,17-47.9,34.9c-13.5,19.3-27.5,39.1-56,39.1s-42.5-19.9-56-39.1
		c-12.6-18-24.5-34.9-47.9-34.9c-23.4,0-35.3,17-47.9,34.9c-13.5,19.3-27.5,39.1-56,39.1c-28.5,0-42.5-19.9-56-39.1
		c-12.6-18-24.5-34.9-47.9-34.9c-23.4,0-35.3,17-47.9,34.9c-13.5,19.3-27.5,39.1-56,39.1c-28.5,0-42.5-19.9-56-39.1
		c-12.6-18-24.5-34.9-47.9-34.9c-23.4,0-35.3,17-47.9,34.9c-13.5,19.3-27.4,39.1-56,39.1c-28.5,0-42.5-19.9-56-39.1
		c-1.6-2.3-3.2-4.6-4.9-6.9V1255c4.6,5.4,8.8,11.4,13,17.3c12.6,18,24.5,34.9,47.9,34.9c23.4,0,35.3-17,47.9-34.9
		c13.5-19.2,27.5-39.1,56-39.1c28.5,0,42.5,19.9,56,39.1c12.6,18,24.5,34.9,47.9,34.9c23.4,0,35.3-17,47.9-34.9
		c13.5-19.2,27.5-39.1,56-39.1c28.5,0,42.5,19.9,56,39.1c12.6,18,24.5,34.9,47.9,34.9c23.4,0,35.3-17,47.9-34.9
		c13.5-19.3,27.5-39.1,56-39.1c28.5,0,42.5,19.9,56,39.1c12.6,18,24.5,34.9,47.9,34.9c23.4,0,35.3-17,47.9-34.9
		c13.5-19.2,27.5-39.1,56-39.1c28.5,0,42.5,19.9,56,39.1c12.6,18,24.5,34.9,47.9,34.9c23.4,0,35.3-17,47.9-34.9
		c13.5-19.2,27.5-39.1,56-39.1c28.5,0,42.5,19.9,56,39.1c12.6,18,24.5,34.9,47.9,34.9c23.4,0,35.3-17,47.9-34.9
		c13.5-19.2,27.4-39.1,56-39.1c28.5,0,42.5,19.9,56,39.1c12.6,18,24.5,34.9,47.9,34.9c23.4,0,35.3-17,47.9-34.9
		c13.5-19.2,27.5-39.1,56-39.1c28.6,0,42.5,19.9,56,39.1c12.6,18,24.5,34.9,47.9,34.9s35.3-17,47.9-34.9
		c13.5-19.2,27.4-39.1,56-39.1c28.5,0,42.5,19.9,56,39.1c12.6,18,24.5,34.9,47.9,34.9c23.4,0,35.3-17,47.9-34.9
		c13.5-19.2,27.5-39.1,56-39.1c28.5,0,42.5,19.9,56,39.1c12.6,18,24.5,34.9,47.9,34.9c23.4,0,35.3-17,47.9-34.9
		c13.5-19.2,27.4-39.1,56-39.1c28.5,0,42.5,19.9,56,39.1c12.6,18,24.5,34.9,47.9,34.9c23.4,0,35.3-17,47.9-34.9
		C2191.2,1266.3,2195.4,1260.4,2200,1255z"/>
	<path d="M2200,1353.5v16.1c-1.6,2.3-3.2,4.5-4.9,6.9c-13.5,19.2-27.5,39.1-56,39.1c-28.5,0-42.5-19.9-56-39.1
		c-12.6-18-24.5-34.9-47.9-34.9c-23.4,0-35.3,17-47.9,34.9c-13.5,19.2-27.4,39.1-56,39.1s-42.5-19.9-56-39.1
		c-12.6-18-24.5-34.9-47.9-34.9c-23.4,0-35.3,17-47.9,34.9c-13.5,19.2-27.4,39.1-56,39.1c-28.5,0-42.5-19.9-56-39.1
		c-12.6-18-24.5-34.9-47.9-34.9c-23.4,0-35.3,17-47.9,34.9c-13.5,19.2-27.5,39.1-56,39.1c-28.5,0-42.5-19.9-56-39.1
		c-12.6-18-24.5-34.9-47.9-34.9c-23.4,0-35.3,17-47.9,34.9c-13.5,19.2-27.5,39.1-56,39.1c-28.6,0-42.5-19.9-56-39.1
		c-12.6-18-24.5-34.9-47.9-34.9s-35.3,17-47.9,34.9c-13.5,19.2-27.4,39.1-56,39.1c-28.5,0-42.5-19.9-56-39.1
		c-12.6-18-24.5-34.9-47.9-34.9c-23.4,0-35.3,17-47.9,34.9c-13.5,19.2-27.5,39.1-56,39.1c-28.5,0-42.5-19.9-56-39.1
		c-12.6-18-24.5-34.9-47.9-34.9c-23.4,0-35.3,17-47.9,34.9c-13.5,19.2-27.5,39.1-56,39.1s-42.5-19.9-56-39.1
		c-12.6-18-24.5-34.9-47.9-34.9c-23.4,0-35.3,17-47.9,34.9c-13.5,19.2-27.5,39.1-56,39.1c-28.5,0-42.5-19.9-56-39.1
		c-12.6-18-24.5-34.9-47.9-34.9c-23.4,0-35.3,17-47.9,34.9c-13.5,19.2-27.5,39.1-56,39.1c-28.5,0-42.5-19.9-56-39.1
		c-12.6-18-24.5-34.9-47.9-34.9c-23.4,0-35.3,17-47.9,34.9c-13.5,19.2-27.4,39.1-56,39.1c-28.5,0-42.5-19.9-56-39.1
		c-1.6-2.3-3.2-4.6-4.9-6.9v-16.1c4.6,5.4,8.8,11.4,13,17.3c12.6,18,24.5,34.9,47.9,34.9c23.4,0,35.3-17,47.9-34.9
		c13.5-19.2,27.5-39.1,56-39.1c28.5,0,42.5,19.9,56,39.1c12.6,18,24.5,34.9,47.9,34.9c23.4,0,35.3-17,47.9-34.9
		c13.5-19.2,27.5-39.1,56-39.1c28.5,0,42.5,19.9,56,39.1c12.6,18,24.5,34.9,47.9,34.9c23.4,0,35.3-17,47.9-34.9
		c13.5-19.2,27.5-39.1,56-39.1c28.5,0,42.5,19.9,56,39.1c12.6,18,24.5,34.9,47.9,34.9c23.4,0,35.3-17,47.9-34.9
		c13.5-19.2,27.5-39.1,56-39.1c28.5,0,42.5,19.9,56,39.1c12.6,18,24.5,34.9,47.9,34.9c23.4,0,35.3-17,47.9-34.9
		c13.5-19.2,27.5-39.1,56-39.1c28.5,0,42.5,19.9,56,39.1c12.6,18,24.5,34.9,47.9,34.9c23.4,0,35.3-17,47.9-34.9
		c13.5-19.2,27.4-39.1,56-39.1c28.5,0,42.5,19.9,56,39.1c12.6,18,24.5,34.9,47.9,34.9c23.4,0,35.3-17,47.9-34.9
		c13.5-19.2,27.5-39.1,56-39.1c28.6,0,42.5,19.9,56,39.1c12.6,18,24.5,34.9,47.9,34.9s35.3-17,47.9-34.9
		c13.5-19.2,27.4-39.1,56-39.1c28.5,0,42.5,19.9,56,39.1c12.6,18,24.5,34.9,47.9,34.9c23.4,0,35.3-17,47.9-34.9
		c13.5-19.2,27.5-39.1,56-39.1c28.5,0,42.5,19.9,56,39.1c12.6,18,24.5,34.9,47.9,34.9c23.4,0,35.3-17,47.9-34.9
		c13.5-19.2,27.4-39.1,56-39.1c28.5,0,42.5,19.9,56,39.1c12.6,18,24.5,34.9,47.9,34.9c23.4,0,35.3-17,47.9-34.9
		C2191.2,1364.9,2195.4,1359,2200,1353.5z"/>
	<path d="M0,1452.1c3.8,4.4,7.2,9.1,10.6,13.9H0V1452.1z"/>
	<path d="M218.4,1466h-12.2c-10.5-14.2-22-25.9-41.4-25.9c-19.4,0-30.9,11.7-41.5,25.9h-12.2c12.8-18.1,26.7-35.8,53.6-35.8
		C191.7,1430.2,205.6,1447.9,218.4,1466z"/>
	<path d="M426.2,1466H414c-10.5-14.2-22-25.9-41.4-25.9c-19.4,0-30.9,11.7-41.5,25.9H319c12.8-18.1,26.7-35.8,53.6-35.8
		C399.5,1430.2,413.4,1447.9,426.2,1466z"/>
	<path d="M634,1466h-12.2c-10.5-14.2-22-25.9-41.4-25.9c-19.4,0-30.9,11.7-41.5,25.9h-12.2c12.8-18.1,26.7-35.8,53.6-35.8
		C607.3,1430.2,621.2,1447.9,634,1466z"/>
	<path d="M841.9,1466h-12.2c-10.5-14.2-22-25.9-41.5-25.9c-19.4,0-30.9,11.7-41.4,25.9h-12.2c12.8-18.1,26.7-35.8,53.6-35.8
		C815.1,1430.2,829.1,1447.9,841.9,1466z"/>
	<path d="M1049.7,1466h-12.2c-10.6-14.2-22-25.9-41.5-25.9c-19.4,0-30.9,11.7-41.5,25.9h-12.2c12.8-18.1,26.7-35.8,53.6-35.8
		C1022.9,1430.2,1036.9,1447.9,1049.7,1466z"/>
	<path d="M1257.5,1466h-12.2c-10.5-14.2-22-25.9-41.4-25.9s-30.9,11.7-41.5,25.9h-12.2c12.8-18.1,26.7-35.8,53.6-35.8
		C1230.8,1430.2,1244.7,1447.9,1257.5,1466z"/>
	<path d="M1465.3,1466h-12.2c-10.5-14.2-22-25.9-41.4-25.9c-19.4,0-30.9,11.7-41.4,25.9h-12.2c12.8-18.1,26.8-35.8,53.6-35.8
		C1438.6,1430.2,1452.5,1447.9,1465.3,1466z"/>
	<path d="M1673.2,1466H1661c-10.6-14.2-22-25.9-41.4-25.9c-19.4,0-30.9,11.7-41.5,25.9h-12.2c12.8-18.1,26.7-35.8,53.6-35.8
		C1646.4,1430.2,1660.4,1447.9,1673.2,1466z"/>
	<path d="M1881,1466h-12.2c-10.5-14.2-22-25.9-41.4-25.9c-19.4,0-30.9,11.7-41.5,25.9h-12.2c12.8-18.1,26.7-35.8,53.6-35.8
		C1854.3,1430.2,1868.2,1447.9,1881,1466z"/>
	<path d="M2088.8,1466h-12.2c-10.6-14.2-22-25.9-41.4-25.9c-19.4,0-30.9,11.7-41.4,25.9h-12.2c12.8-18.1,26.7-35.8,53.6-35.8
		C2062.1,1430.2,2076,1447.9,2088.8,1466z"/>
	<path d="M2200,1452.1v13.9h-10.6C2192.8,1461.2,2196.3,1456.5,2200,1452.1z"/>
</g>
<g id="Layer_2">
	<g>
		<g>
			<g>
				<g>
					<path class="st1" d="M1490.1,226.3c-1.4,0-2.5-1.1-2.5-2.5V4.1c0-1.4,1.1-2.5,2.5-2.5c1.4,0,2.5,1.1,2.5,2.5v219.6
						C1492.6,225.1,1491.5,226.3,1490.1,226.3z"/>
				</g>
				<g>
					<path class="st2" d="M1619.2,314.1c0-71.3-57.8-129.1-129.1-129.1c-71.3,0-129.1,57.8-129.1,129.1H1619.2z"/>
				</g>
				<g>
					<defs>
						<path id="SVGID_11_" d="M1619.2,314.1c0-71.3-57.8-129.1-129.1-129.1c-71.3,0-129.1,57.8-129.1,129.1H1619.2z"/>
					</defs>
					<clipPath id="SVGID_1_">
						<use xlink:href="#SVGID_11_"  style="overflow:visible;"/>
					</clipPath>
					<g class="st3">
						<g>
							<path class="st4" d="M1583.5,194c-20.8,16.3-50,21.4-75.1,13c-6.5-2.1-12.8-5.1-19.5-5.6c-16-1-29.6,12-45.4,14.3
								c-18.2,2.7-35.1-9-49.8-20.1c0,0,50-47.7,100.6-37.8S1583.5,194,1583.5,194z"/>
						</g>
					</g>
					<g class="st5">
						<g>
							<path class="st6" d="M1342.3,269.9c28.8-12.9,62.7-14,92.3-3.1c16.3,6,31.9,15.7,49.3,15.6c15.5,0,29.9-7.9,45.2-10.8
								c13.3-2.6,27.4-1.2,40,3.8c5.4,2.1,10.7,5,16.4,6.1c9.1,1.7,18.4-1,27.6-1.4c14.8-0.7,29.8,5.1,40.3,15.5l-4,55l-309.6-18.4
								L1342.3,269.9z"/>
						</g>
					</g>
				</g>
			</g>
			<g class="st7">
				<polygon class="st8" points="1359.8,315 967.6,1473.3 2032.2,1473.3 1618.1,315 				"/>
			</g>
		</g>
		<g>
			<path class="st9" d="M1253.7,1166.8c10.6,0,19.6-7.7,21.2-18.2c5.3-36.2,3.4-165.5-26.7-182.5c-56.3-31.8-96.8-8.7-131.5-33.2
				c-34.7-24.6-22.2-139.3-80.9-153.1c-98.2-23.1-188.4,8.2-188.4,8.2l-6,147.9l74.5,229.7L1253.7,1166.8z"/>
		</g>
		<g>
			<path class="st1" d="M1086.8,863.3c0,0-14.4,153.7,22.8,165.8c39.6,12.9,156.3-10.1,165.9,48.7c0,0,10.9-77.9-12.2-101.9
				c-44.2-46-121.3-23.3-139-39.7C1106.5,919.7,1086.8,863.3,1086.8,863.3z"/>
		</g>
		<path class="st1" d="M1259.9,1468.1L1069,1363.5v-173.7h129.8c15.3,0,27.7-12.4,27.7-27.7H917.3c0,15.3,12.4,27.7,27.7,27.7h108.1
			v175l-188.6,103.3l32.4-0.7l156.1-49v49.4h15.9v-50.1l158.5,49.7L1259.9,1468.1z"/>
		<g>
			<g>
				<g>
					<polygon class="st10" points="1458.9,1383.9 1429.6,1338.3 1389.1,1365.6 1423.8,1416.2 					"/>
				</g>
				<g>
					<polygon class="st4" points="1447.3,1363 1406.2,1390.6 1419.8,1410.9 1457.9,1381.6 					"/>
				</g>
				<g>
					<path class="st11" d="M1546.4,1366.8c-27.4,9.9-71,26.6-71,26.6l-14-16.3l-46.4,32c0,0,25,46.4,27.7,50.6
						c2.7,4.2,8.7,14.8,15.9,10.4c18.5-11.2,123.9-82.6,140.2-98.9c4.1-4.1-3.3-14-16.2-14.9
						C1570.7,1355.4,1554,1364.1,1546.4,1366.8z"/>
				</g>
				<g>
					<path class="st1" d="M1479.5,1423.5c-2.4,0-4.5-1.4-5.9-3.9c-2.2-4-3.1-24.2-2.7-28.7c0.1-0.8,0.6-1.4,1.3-1.7
						c0.7-0.3,1.5-0.1,2.1,0.5c4,4,12.7,18.4,12.2,26.9c-0.2,3.9-2.3,6.3-5.9,6.8C1480.2,1423.5,1479.8,1423.5,1479.5,1423.5z
						 M1474.7,1396.7c0.2,7.6,1.2,19,2.3,21c1.2,2.1,2.4,2,2.9,1.9c1.3-0.2,2.5-0.7,2.6-3.2
						C1482.8,1411.2,1478.4,1402.3,1474.7,1396.7z"/>
				</g>
				<g>
					<path class="st1" d="M1493.6,1413.9c-1,0-2.2-0.2-3.5-0.9c-4.2-2-16.6-17.9-19-21.7c-0.4-0.7-0.4-1.5,0.1-2.1
						c0.4-0.6,1.2-0.9,1.9-0.8c5.6,1,21.1,7.5,25.6,14.8c2.1,3.3,1.8,6.5-0.8,9C1497.1,1412.9,1495.7,1413.9,1493.6,1413.9z
						 M1477.6,1393.7c4.6,6,12,14.7,14.1,15.7c2.2,1,3.1,0.2,3.5-0.2c0.9-0.9,1.6-2,0.2-4.1
						C1492.6,1400.8,1483.9,1396.1,1477.6,1393.7z"/>
				</g>
				<g>
					<path class="st1" d="M1448.4,1467.7c-0.6,0-1.2-0.3-1.6-0.8c-0.6-0.9-0.4-2.1,0.5-2.7l148.2-102.2c0.9-0.6,2.1-0.4,2.7,0.5
						c0.6,0.9,0.4,2.1-0.5,2.7l-148.2,102.2C1449.1,1467.6,1448.7,1467.7,1448.4,1467.7z"/>
				</g>
				<g>
					<path class="st1" d="M1519.7,1389.5c-1.1,0-1.9-0.9-1.9-1.9c-0.2-10.4,2.2-14.7,2.5-15.1c0.5-0.9,1.7-1.2,2.7-0.7
						c0.9,0.5,1.2,1.7,0.7,2.7c-0.1,0.1-2.1,3.9-1.9,13.1C1521.7,1388.6,1520.8,1389.5,1519.7,1389.5
						C1519.8,1389.5,1519.7,1389.5,1519.7,1389.5z"/>
				</g>
				<g>
					<path class="st1" d="M1508.3,1394.1c-1.1,0-1.9-0.9-1.9-1.9c-0.2-10.4,2.2-14.7,2.5-15.1c0.5-0.9,1.7-1.2,2.7-0.7
						c0.9,0.5,1.2,1.7,0.7,2.7c-0.1,0.1-2.1,3.9-1.9,13.1C1510.3,1393.2,1509.4,1394.1,1508.3,1394.1
						C1508.3,1394.1,1508.3,1394.1,1508.3,1394.1z"/>
				</g>
				<g>
					<path class="st1" d="M1497.7,1397.7c-1.1,0-1.9-0.9-1.9-1.9c-0.2-10.4,2.2-14.7,2.5-15.1c0.5-0.9,1.7-1.2,2.7-0.7
						c0.9,0.5,1.2,1.7,0.7,2.7c0,0.1-2.1,3.8-1.9,13.1C1499.7,1396.8,1498.8,1397.7,1497.7,1397.7
						C1497.7,1397.7,1497.7,1397.7,1497.7,1397.7z"/>
				</g>
			</g>
			<g>
				<path class="st12" d="M1121.4,958.6c64.6,59.5,134.9,97.5,195.7,171.4c60.8,73.9,87,140.4,129,214.1
					c-18.1,13.5-53.5,42.5-67.3,38.9c-8.7-2.3-108.8-126.1-170-189.9c-32.7-34.1-125.8-45.3-177.9-70.7
					c-42.8-20.9-66.3-59.3-49.8-180"/>
			</g>
		</g>
		<g>
			<g>
				<polygon class="st1" points="1460.3,1013.3 1432.2,1004.8 1358,1470.8 1378.7,1471.6 				"/>
			</g>
			<g>
				<rect x="1415.4" y="1008.2" class="st13" width="59" height="23.6"/>
			</g>
			<g>
				<polygon class="st1" points="1948.4,1013.3 1976.5,1004.8 2050.7,1470.8 2030,1471.6 				"/>
			</g>
			<g>
				
					<rect x="1934.2" y="1008.2" transform="matrix(-1 -1.224647e-16 1.224647e-16 -1 3927.4492 2040.0791)" class="st13" width="59" height="23.6"/>
			</g>
			<g>
				<rect x="1405.4" y="987.7" class="st9" width="596" height="31.5"/>
			</g>
		</g>
		<g>
			<g>
				<path class="st4" d="M1457.2,931.9c0,0,20.7-31.1,14.9-56c-3-13.1-13.5-22.2-22.8-31c-11.7-11.1-15.1-17.4-15.6-34
					c-0.2-7.1-0.8-14.4-4.2-20.6c-3.4-6.2-10.5-10.9-17.4-9.5c-6.3,1.3-10.8,7.4-12,13.7c-1.2,6.3,0.3,12.8,2.2,18.9
					c4.1,13.1,10.6,25.8,19.8,36.1c8.3,9.3,22.5,16,28.2,27.3C1463.5,902.4,1457.2,931.9,1457.2,931.9z"/>
			</g>
			<g>
				<path class="st4" d="M1419.9,872.5c5.2-2.1,11.5,1.2,15.8,4.7c4.4,3.5,6.2,10.8,2.1,14.6c-3.1,2.9-8.1,2.6-12,0.9
					c-4.5-2-8.4-5.8-9.2-10.7C1415.9,877.2,1417.6,873.5,1419.9,872.5z"/>
			</g>
			<g>
				<path class="st4" d="M1453.1,818.5c5.3-2.8,15.7,0.6,14.7,7.7c-0.4,2.8-2.6,5.1-5.2,6c-2.7,0.9-5.7,0.3-8-1.1
					c-2.2-1.4-3.9-3.5-4.4-6.1C1449.6,821.8,1450.9,819.6,1453.1,818.5z"/>
			</g>
			<g>
				<g>
					<path class="st2" d="M1498.4,933.2c0,0-0.1,0-0.1,0c-1.1,0-2.2,0.1-3.3,0.4l1.5-12l-72.2,0.2l7.4,65.6
						c10.1,4.6,56.6,1.6,56.6,1.6l2.9-23.5c2.3,1.1,4.7,1.7,7.3,1.7c0,0,0.1,0,0.1,0c4.5,0,8.8-1.8,12-5.1c3.2-3.2,4.9-7.5,4.9-12
						C1515.4,940.7,1507.7,933.2,1498.4,933.2z M1505.4,957c-1.8,1.8-4.3,2.9-6.8,2.9c0,0,0,0-0.1,0c-2.3,0-4.6-0.9-6.3-2.4
						l1.9-15.9c1.3-0.7,2.8-1.1,4.3-1.1c0,0,0,0,0.1,0c5.3,0,9.7,4.3,9.7,9.6C1508.2,952.7,1507.2,955.1,1505.4,957z"/>
				</g>
				<g>
					<defs>
						<path id="SVGID_13_" d="M1498.4,933.2c0,0-0.1,0-0.1,0c-1.1,0-2.2,0.1-3.3,0.4l1.5-12l-72.2,0.2l7.4,65.6
							c10.1,4.6,56.6,1.6,56.6,1.6l2.9-23.5c2.3,1.1,4.7,1.7,7.3,1.7c0,0,0.1,0,0.1,0c4.5,0,8.8-1.8,12-5.1c3.2-3.2,4.9-7.5,4.9-12
							C1515.4,940.7,1507.7,933.2,1498.4,933.2z M1505.4,957c-1.8,1.8-4.3,2.9-6.8,2.9c0,0,0,0-0.1,0c-2.3,0-4.6-0.9-6.3-2.4
							l1.9-15.9c1.3-0.7,2.8-1.1,4.3-1.1c0,0,0,0,0.1,0c5.3,0,9.7,4.3,9.7,9.6C1508.2,952.7,1507.2,955.1,1505.4,957z"/>
					</defs>
					<clipPath id="SVGID_2_">
						<use xlink:href="#SVGID_13_"  style="overflow:visible;"/>
					</clipPath>
					<g class="st14">
						<g>
							<path class="st6" d="M1508.7,957.1c-7.7-3.2-16.4-1.1-24.2,1.6c-7.8,2.8-15.7,6.2-24,5.7c-5-0.3-9.9-2.1-14.9-2.1
								c-9.5,0-17.8,6.2-25.3,12.1c-0.7,0.5,0.7,1.5-0.2,1.5l1.5,24.3l84.6-9.4L1508.7,957.1z"/>
						</g>
					</g>
					<g class="st15">
						<g>
							<path class="st4" d="M1413.3,933.9c6.3,1.4,12,4.7,18,7.1c6,2.4,12.8,4,18.9,1.8c6.3-2.3,11.1-8.4,17.8-9.4
								c2.8-0.4,5.6,0.1,8.5,0.4c10,0.8,20.2-2.4,27.9-8.9l-2.9-17.9l-85.9,2.1L1413.3,933.9z"/>
						</g>
					</g>
				</g>
			</g>
		</g>
		<g>
			<g>
				<polygon class="st1" points="1804,921.1 1822.2,987.6 1651.6,987.6 1714.1,970.6 1697.2,922.4 				"/>
			</g>
			<g>
				<g>
					<path class="st9" d="M1581.3,930.5h359.1c21.3,0,39.5-18.5,42.8-43.5l24.7-188.9c4.1-31.2-16.2-59.3-42.8-59.3h-359.1
						c-21.3,0-39.5,18.5-42.8,43.5l-24.7,188.9C1534.4,902.4,1554.7,930.5,1581.3,930.5z"/>
				</g>
				<g>
					<path class="st1" d="M1538.5,871.2c-4.1,31.2,16.2,59.3,42.8,59.3h359.1c21.3,0,39.5-18.5,42.8-43.5l2-13.8L1538.5,871.2z"/>
				</g>
				<g>
					<g>
						<path class="st4" d="M1665.1,835.8h185.2c11,0,20.4-9.5,22.1-22.4L1885,716c2.1-16.1-8.4-30.6-22.1-30.6h-185.2
							c-11,0-20.4,9.5-22.1,22.4l-12.7,97.4C1640.9,821.3,1651.4,835.8,1665.1,835.8z"/>
					</g>
					<g>
						<path class="st16" d="M1704.1,806.2h112.1c6.7,0,12.3-5.8,13.4-13.6l7.7-59c1.3-9.7-5.1-18.5-13.4-18.5h-112.1
							c-6.7,0-12.3,5.8-13.4,13.6l-7.7,59C1689.5,797.4,1695.8,806.2,1704.1,806.2z"/>
					</g>
					<g>
						<path class="st9" d="M1837.2,732c1.3-9.7-4.9-16.9-13.2-16.9h-112.1c-6.7,0-12.1,4.8-13.9,16.5L1837.2,732z"/>
					</g>
					<g>
						<defs>
							<path id="SVGID_15_" d="M1704.1,806.2h112.1c6.7,0,12.3-5.8,13.4-13.6l7.7-59c1.3-9.7-5.1-18.5-13.4-18.5h-112.1
								c-6.7,0-12.3,5.8-13.4,13.6l-7.7,59C1689.5,797.4,1695.8,806.2,1704.1,806.2z"/>
						</defs>
						<clipPath id="SVGID_3_">
							<use xlink:href="#SVGID_15_"  style="overflow:visible;"/>
						</clipPath>
						<g class="st17">
							<path class="st2" d="M1757.5,756.6c7-6.1,17.6-5.4,23.7,1.6c6.1,7,5.4,17.6-1.6,23.7c-7,6.1-17.6,5.4-23.7-1.6
								C1749.8,773.3,1750.5,762.7,1757.5,756.6z"/>
						</g>
						<g class="st17">
							<path class="st1" d="M1822.6,810.4c-3.5-16.8-20.6-56.5-23.8-60.2c-11.5,11.2-19.4,19.3-30.3,30.5
								c-5.8-7-27.7-39.8-28.3-39.7c-0.9,0.1-42.4,64.5-43.8,68.6L1822.6,810.4z"/>
						</g>
					</g>
					<g>
						<circle class="st2" cx="1677.3" cy="693.3" r="2.3"/>
					</g>
					<g>
						<path class="st9" d="M1688.4,693.3c0,1.3-1,2.3-2.3,2.3s-2.3-1-2.3-2.3s1-2.3,2.3-2.3S1688.4,692,1688.4,693.3z"/>
					</g>
					<g>
						<path class="st2" d="M1713.6,721.1c0,1.3-1,2.3-2.3,2.3c-1.3,0-2.3-1-2.3-2.3c0-1.3,1-2.3,2.3-2.3
							C1712.6,718.7,1713.6,719.8,1713.6,721.1z"/>
					</g>
					<g>
						<path class="st4" d="M1722.3,721.1c0,1.3-1,2.3-2.3,2.3s-2.3-1-2.3-2.3c0-1.3,1-2.3,2.3-2.3S1722.3,719.8,1722.3,721.1z"/>
					</g>
				</g>
				<g>
					<path class="st9" d="M1771.2,906.9h-42.5c-2.7,0-4.9-2.2-4.9-4.9l0,0c0-2.7,2.2-4.9,4.9-4.9h42.5c2.7,0,4.9,2.2,4.9,4.9l0,0
						C1776.2,904.7,1773.9,906.9,1771.2,906.9z"/>
				</g>
			</g>
		</g>
		<g>
			<path class="st1" d="M849.1,787c0,0-7.4,132.9,47.5,145.9s135.1-1.4,157.4,49.1c22.3,50.6,19.3,184.9,19.3,184.9l-154.4-1.4
				c0,0-105.7,6.1-106.9-112.7C811.1,963.1,789.7,823.1,849.1,787z"/>
		</g>
		<g>
			<g>
				<g>
					<path class="st1" d="M1755.3,266.9c-1.1,0-2-0.9-2-2v-21c0-1.1,0.9-2,2-2s2,0.9,2,2v21C1757.3,266,1756.4,266.9,1755.3,266.9z"
						/>
				</g>
				<g>
					<path class="st1" d="M1765.8,256.4h-21c-1.1,0-2-0.9-2-2s0.9-2,2-2h21c1.1,0,2,0.9,2,2S1766.9,256.4,1765.8,256.4z"/>
				</g>
			</g>
			<g>
				<path class="st1" d="M1164,386.6c-4.2,0-7.5-3.4-7.5-7.5s3.4-7.5,7.5-7.5s7.5,3.4,7.5,7.5S1168.2,386.6,1164,386.6z M1164,375.5
					c-1.9,0-3.5,1.6-3.5,3.5s1.6,3.5,3.5,3.5c1.9,0,3.5-1.6,3.5-3.5S1166,375.5,1164,375.5z"/>
			</g>
			<g>
				<g>
					<path class="st1" d="M1474.4,409.2c-1.1,0-2-0.9-2-2v-21c0-1.1,0.9-2,2-2s2,0.9,2,2v21C1476.4,408.3,1475.5,409.2,1474.4,409.2
						z"/>
				</g>
				<g>
					<path class="st1" d="M1484.9,398.7h-21c-1.1,0-2-0.9-2-2c0-1.1,0.9-2,2-2h21c1.1,0,2,0.9,2,2
						C1486.9,397.8,1486,398.7,1484.9,398.7z"/>
				</g>
			</g>
			<g>
				<path class="st1" d="M1517.7,582.9c-4.2,0-7.5-3.4-7.5-7.5c0-4.2,3.4-7.5,7.5-7.5c4.2,0,7.5,3.4,7.5,7.5
					C1525.3,579.6,1521.9,582.9,1517.7,582.9z M1517.7,571.9c-1.9,0-3.5,1.6-3.5,3.5c0,1.9,1.6,3.5,3.5,3.5c1.9,0,3.5-1.6,3.5-3.5
					C1521.3,573.5,1519.7,571.9,1517.7,571.9z"/>
			</g>
			<g>
				<g>
					<path class="st1" d="M1348.6,608c-1.1,0-2-0.9-2-2v-21c0-1.1,0.9-2,2-2s2,0.9,2,2v21C1350.6,607.1,1349.7,608,1348.6,608z"/>
				</g>
				<g>
					<path class="st1" d="M1359.1,597.5h-21c-1.1,0-2-0.9-2-2c0-1.1,0.9-2,2-2h21c1.1,0,2,0.9,2,2
						C1361.1,596.6,1360.2,597.5,1359.1,597.5z"/>
				</g>
			</g>
			<g>
				<path class="st1" d="M1306.2,838.7c-4.2,0-7.5-3.4-7.5-7.5s3.4-7.5,7.5-7.5c4.2,0,7.5,3.4,7.5,7.5S1310.4,838.7,1306.2,838.7z
					 M1306.2,827.6c-1.9,0-3.5,1.6-3.5,3.5c0,1.9,1.6,3.5,3.5,3.5c1.9,0,3.5-1.6,3.5-3.5C1309.7,829.2,1308.2,827.6,1306.2,827.6z"
					/>
			</g>
			<g>
				<g>
					<path class="st1" d="M1245,238.8c-1.1,0-2-0.9-2-2v-21c0-1.1,0.9-2,2-2c1.1,0,2,0.9,2,2v21C1247,237.9,1246.1,238.8,1245,238.8
						z"/>
				</g>
				<g>
					<path class="st1" d="M1255.5,228.3h-21c-1.1,0-2-0.9-2-2c0-1.1,0.9-2,2-2h21c1.1,0,2,0.9,2,2
						C1257.5,227.4,1256.6,228.3,1255.5,228.3z"/>
				</g>
			</g>
			<g>
				<path class="st1" d="M2001.1,406c-4.2,0-7.5-3.4-7.5-7.5s3.4-7.5,7.5-7.5s7.5,3.4,7.5,7.5S2005.2,406,2001.1,406z M2001.1,395
					c-1.9,0-3.5,1.6-3.5,3.5c0,1.9,1.6,3.5,3.5,3.5c1.9,0,3.5-1.6,3.5-3.5C2004.6,396.6,2003,395,2001.1,395z"/>
			</g>
		</g>
		<g>
			<g>
				<g>
					<polygon class="st10" points="1369.6,1345 1372.9,1290.9 1324.2,1288.9 1322.3,1350.3 					"/>
				</g>
				<g>
					<polygon class="st4" points="1372.6,1321.3 1323.1,1319.2 1322.2,1343.6 1370.2,1342.5 					"/>
				</g>
				<g>
					<path class="st9" d="M1450.3,1382.9c-28-8.2-73-20.5-73-20.5l-1.6-21.4l-56.3-1.5c0,0-7.2,52.2-7.5,57.2
						c-0.3,5-1.8,17.1,6.7,17.8c21.6,1.9,148.8,6.5,171.5,3.1c5.7-0.9,5.6-13.2-4.3-21.6C1476.7,1388.1,1458.1,1385.1,1450.3,1382.9
						z"/>
				</g>
				<g>
					<path class="st1" d="M1367.1,1390.5c-1.1,0-2.2-0.3-3.4-0.9c-2.5-1.3-3.7-3.9-3.3-7.2c0.6-4.6,11.8-21.4,14.8-24.8
						c0.5-0.6,1.3-0.8,2-0.6c0.7,0.2,1.3,0.8,1.4,1.6c0.8,5.6-0.6,22.4-6.1,28.9C1370.9,1389.5,1369.1,1390.5,1367.1,1390.5z
						 M1374.9,1364.6c-4.3,6.2-10.3,16-10.6,18.3c-0.3,2.4,0.8,3,1.2,3.2c1.1,0.6,2.4,0.9,4-1
						C1372.8,1381.1,1374.5,1371.4,1374.9,1364.6z"/>
				</g>
				<g>
					<path class="st1" d="M1383.5,1390.8c-2.4,0-4.5-1.4-5.9-4c-2.2-4-2.9-24.2-2.5-28.7c0.1-0.8,0.6-1.4,1.3-1.7
						c0.7-0.3,1.5-0.1,2,0.5c3.9,4.1,12.5,18.5,12,27c-0.3,3.9-2.4,6.3-6,6.8C1384.1,1390.8,1383.8,1390.8,1383.5,1390.8z
						 M1378.9,1363.9c0.1,7.6,1,19,2.1,21c1.2,2.2,2.4,2,2.9,1.9c1.3-0.2,2.5-0.7,2.6-3.2
						C1386.9,1378.5,1382.6,1369.6,1378.9,1363.9z"/>
				</g>
				<g>
					<path class="st1" d="M1492.7,1411.8C1492.7,1411.8,1492.7,1411.8,1492.7,1411.8l-180-5.1c-1.1,0-1.9-0.9-1.9-2
						c0-1.1,1.1-1.9,2-1.9l180,5.1c1.1,0,1.9,0.9,1.9,2C1494.6,1411,1493.8,1411.8,1492.7,1411.8z"/>
				</g>
				<g>
					<path class="st1" d="M1416.5,1385.8c-0.4,0-0.8-0.1-1.1-0.4c-0.9-0.6-1.1-1.8-0.5-2.7c6-8.5,10.5-10.6,10.9-10.8
						c1-0.4,2.1,0,2.6,1c0.4,1,0,2.1-1,2.6c-0.1,0.1-4,1.9-9.3,9.4C1417.8,1385.5,1417.2,1385.8,1416.5,1385.8z"/>
				</g>
				<g>
					<path class="st1" d="M1404.6,1382.7c-0.4,0-0.8-0.1-1.1-0.4c-0.9-0.6-1.1-1.8-0.5-2.7c6-8.5,10.5-10.6,10.9-10.8
						c1-0.4,2.1,0,2.6,1c0.4,1,0,2.1-1,2.6c-0.1,0.1-4,1.9-9.3,9.4C1405.8,1382.5,1405.2,1382.7,1404.6,1382.7z"/>
				</g>
				<g>
					<path class="st1" d="M1393.9,1379.4c-0.4,0-0.8-0.1-1.1-0.4c-0.9-0.6-1.1-1.8-0.5-2.7c6-8.5,10.5-10.6,10.9-10.8
						c1-0.4,2.1,0,2.6,1c0.4,1,0,2.1-1,2.6c-0.1,0.1-4,1.9-9.3,9.4C1395.2,1379.1,1394.5,1379.4,1393.9,1379.4z"/>
				</g>
			</g>
			<g>
				<g>
					<path class="st18" d="M1123.1,962.1c5.5,3.5,59.2,8.9,135.1,23.5c72.4,14,114,17.9,146.1,52.1c20.3,21.6,2.9,198.5-18.7,268.4
						c-35.8-4.4-38.9-3.1-75-2.5c0.4-62,5-181.2-1.6-189.6c-6.7-8.5-4.2-4.1-14.2-8L1123.1,962.1z"/>
				</g>
				<g>
					<path class="st1" d="M1313,1168.8c-0.9,0-1.7-0.8-1.7-1.7l-0.7-73.5c0-0.9,0.7-1.7,1.7-1.7c0,0,0,0,0,0c0.9,0,1.7,0.8,1.7,1.7
						l0.7,73.5C1314.8,1168.1,1314,1168.8,1313,1168.8C1313.1,1168.8,1313,1168.8,1313,1168.8z"/>
				</g>
			</g>
		</g>
		<g>
			<g>
				<path class="st19" d="M2063.5,1304.4c-15.6,4.7-33.5,3.9-48.9-1.9c-61-23-66-90.2-55.8-141.5c6.8-34.4,18.9-68.1,21.6-103
					c4.2-53.5-12.8-111.5,16-158.2c6.1-9.8,14.6-19.1,26.3-22.7c17.2-5.3,36.7,3.6,47,17.2c10.4,13.6,13.3,30.8,13.9,47.4
					c1.5,37.3-6.7,74.5-3.8,111.7c3.6,47.7,28.5,92.6,31.5,140.3c2,32.2,0.9,76.4-27.4,99.8
					C2077.9,1298.6,2071,1302.2,2063.5,1304.4z"/>
			</g>
			<g>
				<path class="st1" d="M2033.2,1328c-1.3,0-2.3-1-2.3-2.3l-2.9-320.2c0-1.3,1-2.3,2.3-2.3c0,0,0,0,0,0c1.3,0,2.3,1,2.3,2.3
					l2.9,320.2C2035.5,1327,2034.5,1328,2033.2,1328C2033.2,1328,2033.2,1328,2033.2,1328z"/>
			</g>
			<g>
				<path class="st9" d="M2074.9,1311.8c-13.8,0.8-28.1-3-39.3-9.9c-44.3-27.6-32.9-78-12.9-114c13.4-24.2,31-46.8,41.2-72.1
					c15.7-38.6,15.2-84.4,49.3-113.7c7.2-6.2,16.3-11.5,26.6-12.1c15.2-0.9,29,9.1,34.3,20.9c5.3,11.8,3.7,25,0.4,37.4
					c-7.3,27.7-22.5,53.7-28.8,81.6c-8,35.8,1.9,73.2-6.6,108.8c-5.8,24.1-16.8,56.4-45.2,68.7
					C2088,1310,2081.5,1311.4,2074.9,1311.8z"/>
			</g>
			<g>
				<path class="st1" d="M2049.6,1332.6c-0.1,0-0.1,0-0.2,0c-1.3-0.1-2.2-1.2-2.1-2.5c6.3-73.6,75.9-275.9,76.6-278
					c0.4-1.2,1.7-1.8,2.9-1.4c1.2,0.4,1.8,1.7,1.4,2.9c-0.7,2-70.1,203.9-76.4,276.9C2051.8,1331.7,2050.8,1332.6,2049.6,1332.6z"/>
			</g>
			<g>
				<path class="st2" d="M1997.7,1334.1l-32.8,137.6h151.4l-29.5-136.6c-0.9-4.3-4.7-7.3-9-7.4l-70.9-0.8
					C2002.6,1326.9,1998.8,1329.8,1997.7,1334.1z"/>
			</g>
			<g>
				<g>
					<defs>
						<path id="SVGID_17_" d="M1997.7,1334.1l-32.8,137.6h151.4l-29.5-136.6c-0.9-4.3-4.7-7.3-9-7.4l-70.9-0.8
							C2002.6,1326.9,1998.8,1329.8,1997.7,1334.1z"/>
					</defs>
					<clipPath id="SVGID_4_">
						<use xlink:href="#SVGID_17_"  style="overflow:visible;"/>
					</clipPath>
					<g class="st20">
						<g>
							<path class="st4" d="M2107.9,1324.7c0.6,5.1-2.8,9.7-6,13.7c-4.8,6-9.8,12.1-16.7,15.5c-4.2,2.1-8.8,3-13.1,4.5
								c-12.9,4.6-23.6,14.5-36.9,17.8c-10.6,2.7-22.2,1-32.1,5.5c-12.9,5.9-19.8,20.8-32.7,26.6l7.7-92.7L2107.9,1324.7z"/>
						</g>
					</g>
					<g class="st21">
						<g>
							<path class="st6" d="M1956.9,1470.4c9.2-8.3,18.6-16.7,29.6-22.3c11-5.7,24.1-8.4,35.9-4.8c3,0.9,5.9,2.2,9,2.5
								c9.3,1,16.8-6.7,24.2-12.4c19.9-15.4,46.2-19,71.1-22.1l1.6,70.8l-170.5-0.7L1956.9,1470.4z"/>
						</g>
					</g>
				</g>
			</g>
		</g>
		<g>
			<g>
				<path class="st22" d="M1773.7,1422.5c0,0-33.3-73.4,62.2-107.8l17.7-88.3c0.7-3.7,4.8-3.9,7.6-1.4c5.8,5.3,20.7,24.2,20.7,24.2
					l30.2-1c0,0,15.3-19.1,22-24c1.7-1.3,8.2-2.4,9.2,4.9c5.2,35.5,20.6,228.6,12.6,236.7c-8.9,8.9-189,0-189,0L1773.7,1422.5z"/>
			</g>
			<g>
				<path class="st22" d="M1776.7,1406.2c0,0-37.7,33.6-19.3,58.7c7.3,9.9,44.3,6.6,85.4,6.6c63.1-0.1,137-0.9,137-0.9
					s12.9-22.6-2.2-30.2c-15.1-7.5-195-5.6-195-5.6"/>
			</g>
			<g>
				<path class="st1" d="M1979.3,1472.2c-0.6,0-1.1-0.3-1.4-0.8c-0.5-0.8-0.3-1.8,0.5-2.4c3.3-2.2,6.8-8.6,6.6-14.7
					c-0.1-3.7-1.5-8.9-7.7-12.6c-7.6-4.5-30.9-2.3-58,0.2c-12.7,1.2-27,2.5-41.5,3.3c-45.8,2.6-90.9-2.2-91.4-2.2
					c-0.9-0.1-1.6-0.9-1.5-1.9c0.1-0.9,0.9-1.6,1.9-1.5c0.4,0,45.3,4.8,90.8,2.2c14.4-0.8,28.7-2.2,41.4-3.3
					c28.8-2.7,51.5-4.8,60,0.3c7.5,4.5,9.2,10.9,9.3,15.4c0.2,7.6-4,14.9-8.2,17.7C1979.9,1472.2,1979.6,1472.2,1979.3,1472.2z"/>
			</g>
			<g>
				<path class="st1" d="M1757.4,1466.6c-0.5,0-1-0.2-1.4-0.7c-8-10.9-7.1-25,2.6-40.7c7.2-11.6,16.5-20,16.9-20.3
					c0.7-0.6,1.8-0.6,2.4,0.1c0.6,0.7,0.6,1.8-0.1,2.4c-0.4,0.3-36.4,32.8-19.1,56.4c0.6,0.8,0.4,1.8-0.4,2.4
					C1758.1,1466.5,1757.8,1466.6,1757.4,1466.6z"/>
			</g>
			<g>
				<path class="st1" d="M1892.5,1276.8c0,2.7-2.2,4.9-4.9,4.9c-2.7,0-4.9-2.2-4.9-4.9c0-2.7,2.2-4.9,4.9-4.9
					C1890.3,1271.9,1892.5,1274.1,1892.5,1276.8z"/>
			</g>
			<g>
				<circle class="st1" cx="1909.2" cy="1276.8" r="4.9"/>
			</g>
			<g>
				<g>
					<path class="st1" d="M1877.7,1445.3c-0.8,0-1.5-0.6-1.7-1.4l-10.7-62.2c-0.2-0.9,0.5-1.8,1.4-2c0.9-0.2,1.8,0.5,2,1.4
						l10.7,62.2c0.2,0.9-0.5,1.8-1.4,2C1877.9,1445.3,1877.8,1445.3,1877.7,1445.3z"/>
				</g>
			</g>
			<g>
				<g>
					<path class="st1" d="M1923.4,1440.7c-0.1,0-0.2,0-0.3,0c-0.9-0.2-1.6-1-1.4-2l10.7-62.2c0.2-0.9,1-1.6,2-1.4
						c0.9,0.2,1.5,1,1.4,2l-10.7,62.2C1925,1440.1,1924.2,1440.7,1923.4,1440.7z"/>
				</g>
			</g>
			<g>
				<path class="st1" d="M1901.5,1440.9c-0.9,0-1.7-0.7-1.7-1.6l-2-51.1c0-0.9,0.7-1.7,1.6-1.8c0.9,0,1.7,0.7,1.8,1.6l2,51.1
					C1903.3,1440,1902.5,1440.8,1901.5,1440.9C1901.6,1440.9,1901.6,1440.9,1901.5,1440.9z"/>
			</g>
			<g>
				<path class="st1" d="M1900.2,1389.3c-4.8,0-9.4-0.8-10.3-0.9c-0.9-0.2-1.5-1.1-1.4-2c0.2-0.9,1.1-1.5,2-1.4
					c5.1,0.9,14.4,1.6,17.5-0.6c0.8-0.5,1.8-0.4,2.4,0.4c0.5,0.8,0.4,1.8-0.4,2.4C1907.7,1388.8,1903.9,1389.3,1900.2,1389.3z"/>
			</g>
			<g>
				<path class="st1" d="M1898.6,1292.8c-0.4,0-0.9-0.2-1.2-0.5l-5.3-5.3c-0.5-0.5-0.6-1.1-0.4-1.7c0.2-0.6,0.7-1.1,1.3-1.2
					c2.9-0.5,9.8-1.5,12.1-0.3c0.8,0.4,1.2,1.1,1.3,1.9c0,0.7,0.1,2.5-6.9,6.8C1899.2,1292.7,1898.9,1292.8,1898.6,1292.8z
					 M1897,1287.1l1.9,1.9c1.2-0.8,2.3-1.6,3-2.2C1900.6,1286.7,1898.8,1286.9,1897,1287.1z"/>
			</g>
			<g>
				<path class="st1" d="M1877.8,1252c-0.9,0-1.6-0.7-1.7-1.6c-0.1-0.9,0.6-1.8,1.6-1.8c1.3-0.1,32-2.3,40.3-1.5
					c0.9,0.1,1.6,0.9,1.5,1.9c-0.1,0.9-0.9,1.6-1.9,1.5c-8-0.7-39.5,1.5-39.8,1.5C1877.9,1252,1877.9,1252,1877.8,1252z"/>
			</g>
			<g class="st23">
				<path class="st4" d="M1855,1223.4c-6.1,2.4-6.1,27.2-6.1,27.2s19.7,1.2,20.6-4.8c0.3-1.9-2.6-6.2-5.1-11.2
					C1861.3,1228.7,1858.3,1222.1,1855,1223.4z"/>
			</g>
			<g class="st23">
				<path class="st4" d="M1939.7,1223.4c6.1,2.4,6.1,27.2,6.1,27.2s-19.7,1.2-20.6-4.8c-0.3-1.9,2.6-6.2,5.1-11.2
					C1933.3,1228.7,1936.3,1222.1,1939.7,1223.4z"/>
			</g>
			<g>
				<path class="st1" d="M1832.5,1327.4c-0.5,0-1-0.2-1.3-0.6c-0.7-0.9-0.9-1.1,7-34.5c0.2-0.9,1.1-1.5,2.1-1.3
					c0.9,0.2,1.5,1.1,1.3,2.1c-2.7,11.5-7,30.2-7.3,32.5c0,0.1,0,0.1,0,0.2C1834.2,1326.7,1833.4,1327.4,1832.5,1327.4z"/>
			</g>
			<g>
				<path class="st6" d="M1819.7,1321.9c1.2,4.8,1.3,11.1,1.3,16c0,4.9-1.5,10-4.9,13.5c-2.4,2.5-5.7,4.2-7.1,7.4
					c-0.7,1.6-0.8,3.4-1.1,5.2c-1.4,7.6-7.3,14.3-14.8,16.4c-7.5,2.1-17.3-1.6-22.5-7.4c0,0,7-22.6,22.4-36.1
					C1806,1325.4,1819.7,1321.9,1819.7,1321.9z"/>
			</g>
			<g>
				<g>
					<path class="st9" d="M1820.7,1381.9c0.2,0,0.2-0.3,0-0.3C1820.4,1381.6,1820.5,1381.9,1820.7,1381.9L1820.7,1381.9z"/>
				</g>
			</g>
			<g>
				<path class="st6" d="M1825,1369.2c-0.5-0.4-1.1-0.8-1.7-0.9c-4.4-1.2-9.5,0.7-11.3,5.1c-1.1,2.6-0.7,5.8,1,8
					c1.2,1.5,2.9,2.6,4.7,3.3c3.6,1.3,8.3,0.6,10.2-2.7C1829.7,1378.9,1828.1,1371.9,1825,1369.2z"/>
			</g>
		</g>
		<g>
			<path class="st1" d="M2194.9,1474.4H785.3c-1.8,0-3.3-1.5-3.3-3.3c0-1.8,1.5-3.3,3.3-3.3h1409.6c1.8,0,3.3,1.5,3.3,3.3
				C2198.2,1472.9,2196.7,1474.4,2194.9,1474.4z"/>
		</g>
		<g>
			<g>
				<g>
					<g>
						<path class="st2" d="M2019.5,506.9h-145.7c-5.3,0-9.6,4.3-9.6,9.6v78.2c0,5.3,4.3,9.6,9.6,9.6h9.5v15.9c0,2.3,2.8,3.3,4.3,1.6
							l15.7-17.5h116.2c5.3,0,9.6-4.3,9.6-9.6v-78.2C2029.1,511.2,2024.8,506.9,2019.5,506.9z"/>
					</g>
				</g>
				<g>
					<g>
						<path class="st4" d="M2003.9,532.8h-115.2c-1.1,0-2.1-0.9-2.1-2.1c0-1.1,0.9-2.1,2.1-2.1h115.2c1.1,0,2.1,0.9,2.1,2.1
							C2006,531.8,2005.1,532.8,2003.9,532.8z"/>
					</g>
				</g>
				<g>
					<g>
						<path class="st4" d="M2003.9,558.2h-115.2c-1.1,0-2.1-0.9-2.1-2.1c0-1.1,0.9-2.1,2.1-2.1h115.2c1.1,0,2.1,0.9,2.1,2.1
							C2006,557.3,2005.1,558.2,2003.9,558.2z"/>
					</g>
				</g>
				<g>
					<g>
						<path class="st4" d="M1979.7,583.5h-91c-1.1,0-2.1-0.9-2.1-2.1c0-1.1,0.9-2.1,2.1-2.1h91c1.1,0,2.1,0.9,2.1,2.1
							C1981.8,582.5,1980.9,583.5,1979.7,583.5z"/>
					</g>
				</g>
			</g>
			<g>
				<g>
					<g>
						<path class="st22" d="M1879.6,451.6c0,3.8-3.1,6.9-6.9,6.9h-93.5c-3.8,0-6.9-3.1-6.9-6.9v-57.8c0-3.8,3.1-6.9,6.9-6.9h93.5
							c3.8,0,6.9,3.1,6.9,6.9V451.6z"/>
					</g>
				</g>
				<g>
					<defs>
						<path id="SVGID_19_" d="M1879.6,451.6c0,3.8-3.1,6.9-6.9,6.9h-93.5c-3.8,0-6.9-3.1-6.9-6.9v-57.8c0-3.8,3.1-6.9,6.9-6.9h93.5
							c3.8,0,6.9,3.1,6.9,6.9V451.6z"/>
					</defs>
					<clipPath id="SVGID_5_">
						<use xlink:href="#SVGID_19_"  style="overflow:visible;"/>
					</clipPath>
					<g class="st24">
						<g>
							<polygon class="st4" points="1876.2,463.9 1837.8,421.6 1876.1,383.3 1873.4,380 1824.9,428.4 1777.6,376.4 1774.7,379.5 
								1813.2,421.9 1774.8,460.1 1777.5,463.4 1816,425 1824.7,434.6 1834.8,424.6 1873.3,467.1 							"/>
						</g>
					</g>
				</g>
				<g>
					<g>
						<g>
							<circle class="st9" cx="1868.9" cy="387.9" r="23.9"/>
						</g>
					</g>
					<g>
						<path class="st4" d="M1853.2,392.5h3.3V384h-3.4v-1.8c0.6-0.1,1.4-0.3,2.3-0.6c0.9-0.3,1.7-0.7,2.4-1.1h1.5v11.9h3v2.3h-9.2
							V392.5z"/>
						<path class="st4" d="M1866.1,394.4c-0.7-0.4-1.3-1.2-1.6-2.3c-0.4-1.1-0.6-2.6-0.6-4.4c0-1.9,0.2-3.4,0.6-4.4
							c0.4-1.1,0.9-1.8,1.6-2.3c0.7-0.4,1.6-0.7,2.7-0.7c1.1,0,2,0.2,2.7,0.7c0.7,0.4,1.3,1.2,1.6,2.3c0.4,1.1,0.6,2.5,0.6,4.4
							c0,1.9-0.2,3.4-0.6,4.4c-0.4,1.1-0.9,1.8-1.6,2.3c-0.7,0.4-1.6,0.7-2.7,0.7C1867.7,395.1,1866.8,394.9,1866.1,394.4z
							 M1870,392.3c0.3-0.3,0.5-0.8,0.6-1.4c0.1-0.6,0.2-1.4,0.2-2.5V387c0-1.1-0.1-1.9-0.2-2.5c-0.1-0.6-0.3-1.1-0.6-1.4
							c-0.3-0.3-0.7-0.4-1.2-0.4c-0.5,0-1,0.1-1.2,0.4c-0.3,0.3-0.5,0.7-0.6,1.4c-0.1,0.6-0.2,1.4-0.2,2.5v1.5
							c0,1.1,0.1,1.9,0.2,2.5c0.1,0.6,0.3,1.1,0.6,1.4c0.3,0.3,0.7,0.4,1.2,0.4C1869.3,392.8,1869.7,392.6,1870,392.3z"/>
						<path class="st4" d="M1875.4,394.1c0-0.8,0.2-1.5,0.5-2.1c0.3-0.6,0.8-1.2,1.3-1.6c0.5-0.5,1.2-1,2-1.6c0.7-0.5,1.3-1,1.7-1.3
							c0.4-0.4,0.7-0.8,1-1.2c0.3-0.5,0.5-1.1,0.5-1.8c0-0.4-0.2-0.8-0.5-1.2c-0.3-0.3-0.8-0.5-1.4-0.5c-1.4,0-2.1,0.7-2.1,2v0.9
							h-2.8c0,0,0-0.1-0.1-0.3c0-0.2,0-0.3,0-0.5c0-1.4,0.5-2.5,1.4-3.2c1-0.7,2.2-1.1,3.6-1.1c1.3,0,2.3,0.2,3,0.7
							c0.7,0.5,1.1,1.1,1.4,1.7c0.2,0.6,0.3,1.2,0.3,1.7c0,1-0.2,1.8-0.6,2.5c-0.4,0.7-0.9,1.4-1.5,1.9c-0.6,0.5-1.3,1.1-2.2,1.6
							c-0.7,0.5-1.2,0.8-1.5,1.1c-0.2,0.2-0.4,0.4-0.5,0.6h6.5v2.5h-10V394.1z"/>
					</g>
				</g>
			</g>
			<g>
				<g>
					<g>
						<path class="st22" d="M1696.8,611.6h-97.7c-1.1,0-2-0.9-2-2v-86.1c0-1.1,0.9-2,2-2h97.7c1.1,0,2,0.9,2,2v86.1
							C1698.8,610.7,1697.9,611.6,1696.8,611.6z"/>
					</g>
				</g>
				<g>
					<g>
						<g>
							<path class="st4" d="M1679.1,546.2h-50.6c-1.3,0-2.3-1-2.3-2.3l0,0c0-1.3,1-2.3,2.3-2.3h50.6c1.3,0,2.3,1.1,2.3,2.3l0,0
								C1681.5,545.2,1680.4,546.2,1679.1,546.2z"/>
						</g>
					</g>
					<g>
						<g>
							<path class="st4" d="M1618.4,543.9c0,1.9-1.5,3.4-3.4,3.4s-3.4-1.5-3.4-3.4c0-1.9,1.5-3.4,3.4-3.4S1618.4,542,1618.4,543.9z"
								/>
						</g>
					</g>
					<g>
						<g>
							<path class="st4" d="M1679.1,569.6h-50.6c-1.3,0-2.3-1-2.3-2.3l0,0c0-1.3,1-2.3,2.3-2.3h50.6c1.3,0,2.3,1,2.3,2.3l0,0
								C1681.5,568.6,1680.4,569.6,1679.1,569.6z"/>
						</g>
					</g>
					<g>
						<g>
							<path class="st4" d="M1618.4,567.3c0,1.9-1.5,3.4-3.4,3.4s-3.4-1.5-3.4-3.4c0-1.9,1.5-3.4,3.4-3.4S1618.4,565.4,1618.4,567.3
								z"/>
						</g>
					</g>
					<g>
						<g>
							<path class="st4" d="M1679.1,593h-50.6c-1.3,0-2.3-1-2.3-2.3l0,0c0-1.3,1-2.3,2.3-2.3h50.6c1.3,0,2.3,1,2.3,2.3l0,0
								C1681.5,591.9,1680.4,593,1679.1,593z"/>
						</g>
					</g>
					<g>
						<g>
							<path class="st4" d="M1618.4,590.7c0,1.9-1.5,3.4-3.4,3.4s-3.4-1.5-3.4-3.4c0-1.9,1.5-3.4,3.4-3.4S1618.4,588.7,1618.4,590.7
								z"/>
						</g>
					</g>
				</g>
			</g>
			<g>
				<g>
					<path class="st19" d="M1841.3,581.1h-119.9c-1.3,0-2.3-1-2.3-2.3v-98.5c0-1.3,1-2.3,2.3-2.3h119.9c1.3,0,2.3,1,2.3,2.3v98.5
						C1843.6,580.1,1842.6,581.1,1841.3,581.1z"/>
				</g>
				<g>
					<path class="st9" d="M1843.6,507.5v-21.9c0-4.2-3.4-7.7-7.7-7.7h-109.2c-4.2,0-7.7,3.4-7.7,7.7v21.9
						C1719.1,507.5,1841.6,507.5,1843.6,507.5z"/>
				</g>
				<g>
					<path class="st4" d="M1759.1,550.3h7.6V531h-7.7v-4c1.4-0.2,3.2-0.6,5.2-1.3c2.1-0.7,3.9-1.6,5.6-2.5h3.4v27.2h7v5.3h-21.1
						V550.3z"/>
					<path class="st4" d="M1786.2,553.3c-2.1-1.9-3.1-4.5-3.1-7.8h6.7c0,1.7,0.4,3,1.3,3.9c0.8,0.9,2,1.4,3.5,1.4
						c1.5,0,2.6-0.5,3.4-1.5c0.8-1,1.3-2.5,1.3-4.4c0-1.8-0.4-3.1-1.3-4c-0.9-0.9-2-1.4-3.4-1.4c-0.9,0-1.7,0.2-2.4,0.6
						c-0.7,0.4-1.3,1-1.8,1.7l-6.2-0.8l1.3-18h18.8v5.8h-13.1l-0.4,7.2c0.8-0.5,1.6-0.9,2.5-1.2c0.9-0.3,2-0.5,3.2-0.5
						c2.8,0,5,0.9,6.8,2.7c1.8,1.8,2.6,4.4,2.6,7.8c0,3.5-1,6.3-3,8.2c-2,2-4.8,2.9-8.3,2.9C1791,556.2,1788.2,555.2,1786.2,553.3z"
						/>
				</g>
				<g>
					<g>
						<path class="st1" d="M1750.4,488.2c-1.1,0-2-0.9-2-2V476c0-1.1,0.9-2,2-2c1.1,0,2,0.9,2,2v10.2
							C1752.5,487.3,1751.6,488.2,1750.4,488.2z"/>
					</g>
					<g>
						<path class="st1" d="M1781.4,488.2c-1.1,0-2-0.9-2-2V476c0-1.1,0.9-2,2-2s2,0.9,2,2v10.2
							C1783.4,487.3,1782.5,488.2,1781.4,488.2z"/>
					</g>
					<g>
						<path class="st1" d="M1812.3,488.2c-1.1,0-2-0.9-2-2V476c0-1.1,0.9-2,2-2c1.1,0,2,0.9,2,2v10.2
							C1814.3,487.3,1813.4,488.2,1812.3,488.2z"/>
					</g>
				</g>
			</g>
			<g>
				<g>
					<g>
						
							<ellipse transform="matrix(0.4313 -0.9022 0.9022 0.4313 547.1647 1730.6404)" class="st4" cx="1646.4" cy="431.3" rx="61.1" ry="61.1"/>
					</g>
					<g>
						<path class="st9" d="M1646.4,496.7c-36.1,0-65.4-29.3-65.4-65.4c0-36.1,29.3-65.4,65.4-65.4c36.1,0,65.4,29.3,65.4,65.4
							C1711.8,467.4,1682.4,496.7,1646.4,496.7z M1646.4,374.4c-31.4,0-56.9,25.5-56.9,56.9c0,31.4,25.5,56.9,56.9,56.9
							c31.4,0,56.9-25.5,56.9-56.9C1703.2,399.9,1677.7,374.4,1646.4,374.4z"/>
					</g>
				</g>
				<g>
					<g>
						<path class="st1" d="M1672.7,437.5h-28.3c-1.4,0-2.6-1.2-2.6-2.6v-41.7c0-1.4,1.2-2.6,2.6-2.6c1.4,0,2.6,1.2,2.6,2.6v39.1
							h25.7c1.4,0,2.6,1.2,2.6,2.6C1675.3,436.4,1674.2,437.5,1672.7,437.5z"/>
					</g>
				</g>
			</g>
		</g>
		<g>
			<g>
				<g>
					<path class="st2" d="M911.6,959.7c0,0-45.5-271.6,1.8-338.5c17.9-25.3,99.2-7.1,99.2-7.1c38.8,39.3,58.7,80,73,133.4
						c14.2,53.4,40.2,168.9,45.1,223.9C1086,971.5,911.6,959.7,911.6,959.7z"/>
				</g>
				<g>
					<g>
						<g>
							<path class="st10" d="M1073.5,928.4c0,0,44.4,17.1,45.5,34.2c1,14.9-50,2.3-50,2.3L1073.5,928.4z"/>
						</g>
						<g>
							<path class="st1" d="M1118.3,965.2c-0.4,0-0.8-0.1-1.2-0.4c-4.7-4.3-15.8-8.3-16-8.3c-0.9-0.3-1.4-1.3-1-2.2
								c0.3-0.9,1.3-1.4,2.2-1c0.5,0.2,11.9,4.2,17.1,9c0.7,0.6,0.7,1.7,0.1,2.4C1119.2,965,1118.8,965.2,1118.3,965.2z"/>
						</g>
						<g>
							<path class="st1" d="M1110.3,970.4c-0.4,0-0.8-0.1-1.1-0.4c-4.1-3.4-13-6.5-13.1-6.5c-0.9-0.3-1.4-1.3-1-2.2
								c0.3-0.9,1.3-1.4,2.2-1.1c0.4,0.1,9.5,3.3,14.1,7.1c0.7,0.6,0.8,1.7,0.2,2.4C1111.3,970.2,1110.8,970.4,1110.3,970.4z"/>
						</g>
					</g>
					<g>
						<g>
							<path class="st2" d="M964.1,732.7c-22.1,79.3-14.4,79.4-37.8,155.9c46.6,14.7,115.4,16.4,157.4,41.3
								c-1.1,8.7-4.1,32.6-6.3,34.9c-3.5,3.6-185.8,20.5-230.6-26.5c-36.1-38-9.9-262.8,70-320.9C942,599.1,964.1,732.7,964.1,732.7
								z"/>
						</g>
					</g>
					<g>
						<g>
							<path class="st1" d="M1020.9,973.2c-0.9,0-1.7-0.8-1.7-1.7c0-0.9,0.8-1.7,1.7-1.7c9.2,0,46.3-3.2,53.7-3.9l7.1-34.5
								c-27.4-11.6-60.7-18.8-92.8-25.7c-22.6-4.9-44-9.4-63-15.4c-0.9-0.3-1.4-1.2-1.1-2.1c12.4-40.5,16.1-59.8,20-80.3
								c3.6-18.8,7.4-38.3,17.8-75.6c0.3-0.9,1.2-1.5,2.1-1.2c0.9,0.3,1.4,1.2,1.2,2.1c-10.3,37.2-14.1,56.6-17.7,75.3
								c-3.9,20.3-7.6,39.5-19.6,79c18.4,5.7,39.1,10.1,61.1,14.8c32.8,7,66.8,14.3,94.8,26.4c0.7,0.3,1.2,1.1,1,1.9l-7.6,37.1
								c-0.2,0.7-0.8,1.3-1.5,1.4C1074.3,969.4,1031.3,973.2,1020.9,973.2z"/>
						</g>
					</g>
				</g>
				<g>
					<g>
						<g>
							<g>
								<g>
									<path class="st10" d="M1218.8,569c-8.7-0.6-11.2,8.4-11.5-11.3c-0.2-10.3-5-22.1-5.9-30.8c-0.5-4.4,1.6-6.5,2.9-7.3
										c2.2-1.3,4.4,0,4.4,0c0.7-3.5,5.9-3,7-2.9c2.1,0.3,3.4,2.3,3.4,2.3s0.9-2.7,5.6-2.6c2.8,0.1,4.4,0.9,5.3,2.7
										c0,0,5.4-1.4,7.1,2.7c0.8,2,5.3,14.4,5.8,36.8c0.3,13.8-5.2,11.6-13.5,11.1L1218.8,569z"/>
								</g>
							</g>
							<g>
								<g>
									<path class="st1" d="M1232.5,544.2c-1,0-1.9-0.8-1.9-1.9c-0.3-9.5-1.9-21.5-1.9-21.6c-0.2-1.1,0.6-2,1.6-2.2
										c1.1-0.2,2,0.5,2.2,1.6c0,0.1,1.7,12.3,2,22.1C1234.5,543.3,1233.7,544.2,1232.5,544.2
										C1232.6,544.2,1232.5,544.2,1232.5,544.2z"/>
								</g>
							</g>
							<g>
								<g>
									<path class="st1" d="M1222.9,543.7c-1,0-1.9-0.8-1.9-1.9c-0.3-9.5-2.7-22-2.7-22.1c-0.2-1.1,0.5-2.1,1.5-2.3
										c1.1-0.2,2.1,0.5,2.3,1.5c0,0.1,2.5,13,2.8,22.7C1224.9,542.8,1224.1,543.7,1222.9,543.7
										C1223,543.7,1223,543.7,1222.9,543.7z"/>
								</g>
							</g>
							<g>
								<g>
									<path class="st1" d="M1213.2,543.9c-1,0-1.9-0.8-1.9-1.9c-0.3-9.7-2.7-22.1-2.8-22.6c-0.2-1,0.4-2.1,1.5-2.3
										c1-0.2,2,0.3,2.3,1.4c0,0.1,0,0.1,0,0.2c0.1,0.5,2.6,13.2,2.9,23.2C1215.1,543,1214.3,543.9,1213.2,543.9
										C1213.2,543.9,1213.2,543.9,1213.2,543.9z"/>
								</g>
							</g>
						</g>
						<g>
							<path class="st10" d="M1193.5,539.6c-3.8,2.9,1.3,10.4,6.3,16.6c2.3,2.9,5.1,7,7.5,8.1c3.5,1.6,2.3-12.7,2.3-12.7
								S1201.1,533.8,1193.5,539.6z"/>
						</g>
						<g>
							<path class="st1" d="M1206.1,549.6c-0.7,0-1.4-0.4-1.8-1.1c0-0.1-2.5-5.1-6.1-7.9c-0.9-0.6-1-1.9-0.4-2.7
								c0.6-0.9,1.9-1,2.7-0.4c4.4,3.3,7.2,9,7.3,9.3c0.5,1,0.1,2.1-0.9,2.6C1206.7,549.6,1206.4,549.6,1206.1,549.6z"/>
						</g>
					</g>
					<g>
						<path class="st2" d="M1198.3,567.4c1,24-15.7,133.8-27.5,133.8c-27.3,0-102.1-54.3-150.6-78.5l19.6,124.7
							c23.2,9.9,123.6,59.5,162.6,42.5c73.5-32.1,47-230.3,47-230.3L1198.3,567.4z"/>
					</g>
				</g>
				<g>
					<path class="st1" d="M1098.2,811.6c-0.9,0-1.6-0.6-1.7-1.5c-13.2-118.9-77-185.6-77.6-186.3c-0.7-0.7-0.6-1.8,0-2.4
						c0.7-0.7,1.8-0.6,2.4,0c0.7,0.7,65.2,68.2,78.6,188.3c0.1,0.9-0.6,1.8-1.5,1.9C1098.4,811.6,1098.3,811.6,1098.2,811.6z"/>
				</g>
			</g>
			<g>
				<g>
					<path class="st1" d="M926.4,558.1c0,0-20.3-0.7-21.2-28.9c0,0,14.3,4.7,20.2,4.6C925.4,533.8,926,559.1,926.4,558.1z"/>
				</g>
				<g>
					<path class="st10" d="M1067.9,433.1c2.8,11.7,8.3,32.8,10,44.8c3.3,22.6,5.6,37.8,3,60.6c-1.5,12.8-5.6,25.6-13.8,36.3
						c-15.7,20.4-59.4,17.5-59.4,17.5l1.7,25.6c0,0-40,16.5-79-1.3l-6-78.1c0,0-16.3,0-26.5-7.5c-10-7.4-7.7-36.5,15.5-36.5
						c21.5,0,23.9,2.8,23.9,2.8l21.9-57.6L1067.9,433.1z"/>
				</g>
				<g>
					<g>
						<path class="st1" d="M908.5,516.2c-0.5,0-0.9-0.2-1.3-0.6c-0.6-0.7-0.6-1.8,0.1-2.4c5.7-5.3,16.7-6.7,17.2-6.7
							c1-0.1,1.8,0.5,1.9,1.5c0.1,0.9-0.5,1.8-1.5,1.9c-0.1,0-10.4,1.3-15.3,5.9C909.3,516,908.9,516.2,908.5,516.2z"/>
					</g>
					<g>
						<path class="st1" d="M919.3,523.5c-0.7,0-1.3-0.4-1.6-1c-1.4-3.2-2.6-7.2-3.5-11.9c-0.2-0.9,0.4-1.8,1.3-2
							c0.9-0.2,1.8,0.4,2,1.3c1.1,5.6,2.4,9.2,3.3,11.2c0.4,0.9,0,1.9-0.9,2.3C919.8,523.5,919.5,523.5,919.3,523.5z"/>
					</g>
				</g>
				<g>
					<path class="st1" d="M1016.1,497.2c0.2,3,3,5.2,6.1,5c3.1-0.3,5.5-2.9,5.3-5.9c-0.2-3-3-5.2-6.1-5
						C1018.2,491.5,1015.8,494.1,1016.1,497.2z"/>
				</g>
				<g>
					<path class="st1" d="M1053.9,498c2.4,1.9,6,1.7,8.1-0.6c2.1-2.3,1.8-5.8-0.6-7.7c-2.4-1.9-6-1.7-8.1,0.6
						C1051.2,492.6,1051.5,496,1053.9,498z"/>
				</g>
				<g>
					<path class="st1" d="M1036.6,533.4c-1.8,0-3.6-0.2-5.4-0.7c-3.6-0.9-6.8-2.7-9.2-5.1c-0.7-0.7-0.7-1.7,0-2.4
						c0.7-0.7,1.7-0.7,2.4,0c2,1.9,4.7,3.4,7.7,4.2c3.3,0.8,6.7,0.7,9.6-0.2c0.9-0.3,1.9,0.2,2.2,1.1c0.3,0.9-0.2,1.9-1.1,2.2
						C1040.8,533,1038.7,533.4,1036.6,533.4z"/>
				</g>
				<g>
					<path class="st1" d="M1007.8,601.6l-38.4-9.5c0,0,0.6-4.9,1.8-4.5c11.1,4.2,36.2,4.8,36.2,4.8L1007.8,601.6z"/>
				</g>
				<g>
					<path class="st1" d="M1027.5,474.3c-3.9-2.9-14.1,0.1-16.9,1.6c0,0-2,2.9,0.5,5.5c2.9,3,12.4,0.4,16,0c0.3,0,0.6-0.1,0.8-0.2
						c0.3-0.2,0.4-0.5,0.5-0.9c0.4-1.2,0.8-2.5,0.5-3.8C1028.6,475.5,1028.1,474.8,1027.5,474.3z"/>
				</g>
				<g>
					<path class="st1" d="M1065.4,471.7c-3.8-3-14.1-0.2-17,1.3c0,0-2,2.8,0.4,5.5c2.9,3.1,12.4,0.7,16,0.3c0.3,0,0.6-0.1,0.8-0.2
						c0.3-0.2,0.4-0.5,0.6-0.9c0.5-1.2,0.8-2.5,0.5-3.8C1066.6,473,1066.1,472.3,1065.4,471.7z"/>
				</g>
				<g>
					<path class="st1" d="M903.6,417.5c-16,25.8-12.9,62.5-5.6,82.7c0,0,23.4-10.9,41.5,0.3c6,3.7,3.7,21.5,20.8,19.7
						c15.7-1.6,9.6-39,7.9-68.7c0,0,83,3.3,99.1-18.5c5.6-7.6,6.2-22.2-10.8-35.5C1031,377.8,916.3,397.1,903.6,417.5z"/>
				</g>
				<g>
					<path class="st1" d="M969.5,628.5c-8,0-14.9-1.1-20.4-2.4c-14.6-3.6-22.7-9.9-23.1-10.2c-0.7-0.6-0.9-1.7-0.3-2.4
						c0.6-0.7,1.7-0.9,2.4-0.3c0.3,0.2,31.9,24.3,81.5,3.2c0.9-0.4,1.9,0,2.2,0.9c0.4,0.9,0,1.9-0.9,2.2
						C995.1,626.3,981.1,628.5,969.5,628.5z"/>
				</g>
			</g>
		</g>
	</g>
</g>
</svg>
